<svg width="61" height="60" viewBox="0 0 61 60" fill="none" xmlns="http://www.w3.org/2000/svg">
<path d="M47.8754 22.4882H44.3078L45.3827 10.0739C45.3847 10.0514 45.3851 10.0293 45.3852 10.0071C45.3852 10.0052 45.3854 10.0034 45.3854 10.0015C45.3854 10.0012 45.3854 10.001 45.3854 10.0006C45.3854 9.66276 45.1828 9.36495 44.8849 9.23547C44.8824 9.23436 44.8799 9.23303 44.8774 9.23191C44.8589 9.22412 44.8398 9.21744 44.8205 9.21098C44.8133 9.20864 44.8064 9.20575 44.7993 9.20352C44.7835 9.19873 44.7674 9.19495 44.7513 9.19105C44.74 9.18838 44.7292 9.18515 44.7178 9.18293C44.7037 9.18014 44.6891 9.17836 44.6747 9.17625C44.6612 9.17424 44.648 9.1719 44.6343 9.17068C44.632 9.17046 44.6299 9.17001 44.6276 9.16979C44.613 9.16845 44.5986 9.16868 44.5841 9.16812C44.5744 9.16779 44.5648 9.16667 44.5551 9.16667H44.5447C44.5438 9.16667 44.5429 9.16667 44.5422 9.16667H27.5674C27.1092 9.16667 26.7373 9.54074 26.7373 10.0016C26.7373 10.4614 27.1092 10.8366 27.5674 10.8366H43.6503L41.9983 29.9158C41.9981 29.9172 41.9981 29.9187 41.9979 29.9201L41.5811 34.7341H12.7375L13.22 29.7245H18.7119C19.1704 29.7245 19.542 29.3507 19.542 28.8895C19.542 28.4284 19.1704 28.0546 18.7119 28.0546H13.3809L14.3996 17.4788H23.1403C23.5989 17.4788 23.9704 17.1049 23.9704 16.6438C23.9704 16.1827 23.5989 15.8088 23.1403 15.8088H14.5605L15.0395 10.8366H24.2471C24.7042 10.8366 25.0772 10.4614 25.0772 10.0016C25.0772 9.54074 24.7042 9.16667 24.2471 9.16667H14.2861C14.2857 9.16667 14.2854 9.16678 14.2849 9.16678C13.895 9.16667 13.5568 9.44277 13.475 9.82552C13.4744 9.82831 13.4734 9.83098 13.4729 9.83376C13.4687 9.85458 13.4659 9.87584 13.4631 9.89722C13.4624 9.90401 13.4609 9.91047 13.4603 9.91726C13.4601 9.91859 13.4598 9.91982 13.4597 9.92115L12.8926 15.8088H2.8299C2.37136 15.8088 1.99982 16.1827 1.99982 16.6438C1.99982 17.1049 2.37136 17.4788 2.8299 17.4788H12.7317L11.713 28.0546H8.75137C8.29283 28.0546 7.92129 28.4284 7.92129 28.8895C7.92129 29.3507 8.29283 29.7245 8.75137 29.7245H11.5522L10.9975 35.4826C10.9973 35.4835 10.9973 35.4844 10.9972 35.4852L10.1396 44.3892C10.1395 44.3902 10.1394 44.3913 10.1393 44.3922L10.1389 44.3955C10.1378 44.407 10.1379 44.4184 10.1373 44.43C10.1365 44.4453 10.1349 44.4604 10.1349 44.476C10.1349 44.4766 10.1351 44.4773 10.1351 44.4781C10.1351 44.4996 10.1366 44.5207 10.1382 44.5419C10.1388 44.5487 10.1386 44.5556 10.1394 44.5622C10.1416 44.5838 10.1452 44.6051 10.1491 44.6262C10.1502 44.6325 10.1508 44.6388 10.152 44.645C10.1552 44.661 10.1597 44.6765 10.1639 44.6922C10.1668 44.7032 10.1691 44.7144 10.1725 44.7252C10.1735 44.7282 10.1748 44.7311 10.1757 44.7342C10.2159 44.8585 10.284 44.97 10.373 45.0611C10.3747 45.0628 10.376 45.0647 10.3777 45.0662C10.3865 45.0751 10.3961 45.0831 10.4054 45.0916C10.4627 45.1444 10.5273 45.1891 10.598 45.2242C10.6127 45.2315 10.6272 45.2392 10.6423 45.2456C10.6468 45.2476 10.6517 45.2489 10.6563 45.2507C10.6772 45.259 10.6981 45.2671 10.7197 45.2739C10.7216 45.2744 10.7235 45.2747 10.7255 45.2754C10.7501 45.2828 10.7749 45.2892 10.8002 45.2944C10.8035 45.2951 10.807 45.2953 10.8102 45.296C10.8343 45.3006 10.8586 45.3045 10.8832 45.3069C10.8838 45.3069 10.8842 45.307 10.8848 45.3071C10.912 45.3098 10.939 45.3111 10.9658 45.3111C10.9661 45.3111 10.9666 45.311 10.967 45.311H14.6623C15.0704 48.423 17.7228 50.8333 20.9263 50.8333C24.1297 50.8333 26.7821 48.423 27.1901 45.311H40.5045C40.9127 48.423 43.565 50.8333 46.7684 50.8333C49.9718 50.8333 52.6244 48.423 53.0326 45.311H56.7287C56.7293 45.311 56.73 45.3111 56.7305 45.3111C56.7582 45.3111 56.7854 45.3095 56.8124 45.3068C56.8173 45.3064 56.8219 45.3054 56.8268 45.3048C56.8484 45.3022 56.8699 45.2992 56.8909 45.295C56.9 45.2932 56.9087 45.2908 56.9177 45.2887C56.9339 45.2849 56.9503 45.2809 56.9663 45.2761C56.9771 45.2729 56.9876 45.2691 56.9982 45.2654C57.0119 45.2607 57.0255 45.2558 57.0389 45.2504C57.0504 45.2458 57.0613 45.2408 57.0725 45.2358C57.0847 45.2301 57.0969 45.2243 57.1087 45.2182C57.12 45.2124 57.1308 45.2064 57.1417 45.2002C57.1531 45.1935 57.1644 45.1866 57.1755 45.1794C57.186 45.1728 57.1964 45.166 57.2063 45.1589C57.2176 45.1509 57.2283 45.1426 57.2393 45.1341C57.2484 45.1269 57.2576 45.1198 57.2664 45.1122C57.2778 45.1025 57.2885 45.0924 57.2994 45.082C57.3069 45.0748 57.3148 45.0677 57.3221 45.0601C57.3336 45.0483 57.3446 45.0358 57.3555 45.0233C57.3614 45.0165 57.3675 45.0099 57.3731 45.003C57.3853 44.9879 57.3964 44.9723 57.4074 44.9566C57.4112 44.9511 57.4154 44.946 57.419 44.9404C57.4325 44.92 57.4453 44.8991 57.457 44.8775C57.4579 44.8762 57.4588 44.875 57.4593 44.8735C57.4718 44.8504 57.4833 44.8266 57.4936 44.8021C57.4965 44.7951 57.4987 44.7879 57.5015 44.7809C57.5082 44.7636 57.5149 44.7464 57.5205 44.7285C57.5242 44.7169 57.5268 44.705 57.53 44.6933C57.5337 44.6794 57.5376 44.6655 57.5407 44.6514C57.5434 44.6388 57.5452 44.6259 57.5473 44.6131C57.5492 44.6019 57.5516 44.5908 57.5531 44.5794C57.5883 44.2957 58.2383 39.05 58.5286 35.658C58.5289 35.6547 58.529 35.6514 58.5294 35.6482C58.6129 34.6703 58.6665 33.847 58.6665 33.3428C58.6665 27.3576 53.8257 22.4882 47.8754 22.4882ZM44.1632 24.1584H47.5591L47.1254 29.1678H43.7294L44.1632 24.1584ZM20.9266 49.1633C18.357 49.1633 16.2665 47.0605 16.2665 44.4758C16.2665 41.8912 18.3571 39.7884 20.9266 39.7884C23.496 39.7884 25.5865 41.8912 25.5865 44.4758C25.5865 47.0605 23.496 49.1633 20.9266 49.1633ZM46.7684 49.1633C44.1989 49.1633 42.1086 47.0605 42.1086 44.4758C42.1086 41.8912 44.1991 39.7884 46.7684 39.7884C49.338 39.7884 51.4285 41.8912 51.4285 44.4758C51.4285 47.0605 49.338 49.1633 46.7684 49.1633ZM55.9953 43.6405H53.0328C52.6248 40.5283 49.9723 38.1179 46.7687 38.1179C43.5652 38.1179 40.9127 40.5284 40.5047 43.6405H27.1905C26.7825 40.5283 24.1301 38.1179 20.9266 38.1179C17.723 38.1179 15.0704 40.5284 14.6624 43.6405H11.8796L12.5767 36.4036H42.3418V36.4041C42.3422 36.4041 42.3425 36.4041 42.343 36.4041C42.3708 36.4041 42.3983 36.4025 42.4256 36.3997C42.4306 36.3993 42.4356 36.3982 42.4407 36.3975C42.4624 36.395 42.484 36.3918 42.5052 36.3876C42.5144 36.3857 42.5234 36.3832 42.5325 36.3809C42.5491 36.3769 42.5657 36.373 42.5818 36.3681C42.5929 36.3648 42.6034 36.3608 42.6142 36.357C42.6281 36.3521 42.642 36.3473 42.6555 36.3417C42.6672 36.337 42.6783 36.3316 42.6896 36.3263C42.7019 36.3206 42.7142 36.3149 42.726 36.3087C42.7373 36.3027 42.7484 36.2962 42.7596 36.2898C42.771 36.2831 42.7823 36.2763 42.7933 36.2692C42.8041 36.2621 42.8143 36.2548 42.8245 36.2474C42.8355 36.2397 42.8461 36.2316 42.8568 36.2233C42.8663 36.2156 42.8757 36.2077 42.885 36.1996C42.8955 36.1904 42.9058 36.1811 42.9157 36.1714C42.9242 36.1633 42.9326 36.1549 42.9408 36.1464C42.9507 36.1359 42.9603 36.1251 42.9699 36.1141C42.9773 36.1054 42.9846 36.0967 42.9917 36.0878C43.0009 36.0761 43.0096 36.0641 43.0182 36.052C43.0248 36.0428 43.0311 36.0337 43.0373 36.0243C43.0453 36.0118 43.0531 35.9988 43.0605 35.9857C43.0662 35.9759 43.0719 35.9661 43.077 35.9561C43.084 35.943 43.09 35.9296 43.0963 35.9161C43.1011 35.9053 43.1061 35.8948 43.1105 35.8836C43.116 35.8705 43.1205 35.857 43.1253 35.8435C43.1294 35.8316 43.1337 35.8197 43.1373 35.8075C43.141 35.7946 43.144 35.7813 43.1473 35.7682C43.1505 35.7549 43.154 35.7418 43.1566 35.7283C43.1591 35.7152 43.1607 35.7018 43.1627 35.6885C43.1647 35.6747 43.167 35.6611 43.1683 35.647C43.1685 35.645 43.169 35.6432 43.1691 35.6411L43.5851 30.8373H47.8752C50.4185 30.8373 51.5655 32.1628 52.7798 33.5662C53.7817 34.7241 54.9003 36.0161 56.8018 36.3313C56.5603 38.8997 56.1699 42.1968 55.9953 43.6405ZM56.9437 34.658C55.7102 34.4051 54.9513 33.5328 54.0319 32.4702C52.882 31.1415 51.4783 29.52 48.7874 29.2179L49.2168 24.2583C53.6178 24.9131 57.0063 28.737 57.0063 33.3431C57.0063 33.656 56.9831 34.1107 56.9437 34.658Z" fill="#1F1F1F" stroke="#1F1F1F" stroke-width="0.3"/>
<path d="M18.3829 44.4757C18.3829 43.0609 19.5272 41.9141 20.9265 41.9141C22.3258 41.9141 23.4701 43.061 23.4701 44.4757C23.4701 45.8905 22.3258 47.0373 20.9265 47.0373C19.5272 47.0373 18.3829 45.8905 18.3829 44.4757ZM19.043 44.4757C19.043 45.5165 19.8847 46.3673 20.9265 46.3673C21.9682 46.3673 22.81 45.5165 22.81 44.4757C22.81 43.4349 21.9683 42.5841 20.9265 42.5841C19.8847 42.5841 19.043 43.4349 19.043 44.4757Z" fill="#1F1F1F" stroke="#1F1F1F"/>
<path d="M44.2252 44.4757C44.2252 43.0609 45.3695 41.9141 46.7688 41.9141C48.1681 41.9141 49.3125 43.061 49.3125 44.4757C49.3125 45.8905 48.1682 47.0373 46.7688 47.0373C45.3695 47.0373 44.2252 45.8905 44.2252 44.4757ZM44.8854 44.4757C44.8854 45.5165 45.727 46.3673 46.7688 46.3673C47.8107 46.3673 48.6523 45.5165 48.6523 44.4757C48.6523 43.4349 47.8107 42.5841 46.7688 42.5841C45.727 42.5841 44.8854 43.4349 44.8854 44.4757Z" fill="#1F1F1F" stroke="#1F1F1F"/>
<path d="M9.85797 22.4883H5.79987C5.34133 22.4883 4.96979 22.8622 4.96979 23.3233C4.96979 23.7844 5.34133 24.1583 5.79987 24.1583H9.85797C10.3165 24.1583 10.6881 23.7844 10.6881 23.3233C10.6881 22.8622 10.3165 22.4883 9.85797 22.4883Z" fill="#1F1F1F" stroke="#1F1F1F" stroke-width="0.3"/>
</svg>
