<svg width="32" height="12" viewBox="0 0 32 12" fill="none" xmlns="http://www.w3.org/2000/svg">
<g id="bi:arrow-left" clip-path="url(#clip0_46_463)">
<path id="Vector" fill-rule="evenodd" clip-rule="evenodd" d="M32 6C32 5.82321 31.9326 5.65367 31.8126 5.52866C31.6925 5.40366 31.5298 5.33343 31.36 5.33343H2.18603L6.21404 1.13935C6.27355 1.07737 6.32075 1.0038 6.35295 0.922824C6.38515 0.84185 6.40173 0.755061 6.40173 0.667415C6.40173 0.579769 6.38515 0.492981 6.35295 0.412006C6.32075 0.331032 6.27355 0.257456 6.21404 0.195481C6.15454 0.133506 6.0839 0.0843448 6.00616 0.050804C5.92841 0.0172633 5.84509 0 5.76094 0C5.67679 0 5.59346 0.0172633 5.51572 0.050804C5.43798 0.0843448 5.36734 0.133506 5.30784 0.195481L0.188017 5.52807C0.128419 5.58998 0.0811334 5.66354 0.0488703 5.74452C0.0166072 5.82551 0 5.91232 0 6C0 6.08768 0.0166072 6.17449 0.0488703 6.25548C0.0811334 6.33646 0.128419 6.41001 0.188017 6.47193L5.30784 11.8045C5.36734 11.8665 5.43798 11.9157 5.51572 11.9492C5.59346 11.9827 5.67679 12 5.76094 12C5.84509 12 5.92841 11.9827 6.00616 11.9492C6.0839 11.9157 6.15454 11.8665 6.21404 11.8045C6.27355 11.7425 6.32075 11.669 6.35295 11.588C6.38515 11.507 6.40173 11.4202 6.40173 11.3326C6.40173 11.2449 6.38515 11.1581 6.35295 11.0772C6.32075 10.9962 6.27355 10.9226 6.21404 10.8607L2.18603 6.66657H31.36C31.5298 6.66657 31.6925 6.59634 31.8126 6.47134C31.9326 6.34633 32 6.17679 32 6Z" fill="#1F1F1F"/>
</g>
<defs>
<clipPath id="clip0_46_463">
<rect width="32" height="12" fill="white"/>
</clipPath>
</defs>
</svg>
