<svg width="287" height="60" viewBox="0 0 287 60" fill="none" xmlns="http://www.w3.org/2000/svg">
<path d="M81.1985 31.8985V16.4223C81.1985 15.5766 80.9396 14.7009 80.5068 14.2764H85.3419C84.9092 14.7009 84.623 15.5766 84.623 16.4223V31.8985C84.623 32.7442 84.9126 33.62 85.3419 34.0445H80.5068C80.9396 33.62 81.1985 32.7442 81.1985 31.8985Z" fill="#4E1411"/>
<path d="M102.008 34.0445C102.181 33.5631 101.95 32.7743 101.459 32.0389L95.3563 23.7359L92.9677 25.9119V31.8985C92.9677 32.7442 93.2573 33.62 93.6867 34.0445H88.8516C89.2843 33.62 89.5433 32.7442 89.5433 31.8985V16.4223C89.5433 15.5766 89.2843 14.7009 88.8516 14.2764H93.6867C93.2539 14.7009 92.9677 15.5766 92.9677 16.4223V25.0362L101.633 17.1009C102.525 16.3087 102.669 15.209 102.065 14.2764H106.785C105.923 14.5571 104.253 15.6034 102.727 17.014L97.7483 21.5331L105.49 32.1225C106.093 32.9414 106.785 33.7035 107.245 34.0411H102.008V34.0445Z" fill="#4E1411"/>
<path d="M126.936 34.0444H123.253C122.445 33.6199 121.726 32.9146 121.266 32.0957L118.561 26.9547C118.244 26.3631 117.726 25.855 117.034 25.5709H112.918V31.8951C112.918 32.7408 113.208 33.6165 113.637 34.041H108.802C109.235 33.6165 109.494 32.7408 109.494 31.8951V16.4189C109.494 15.5732 109.235 14.6975 108.802 14.2729H117.753C121.955 14.2729 125.181 16.6462 125.181 19.9219C125.181 22.83 122.65 25.0327 119.106 25.484C120.69 25.8216 122.012 26.5837 122.619 27.8272L124.892 31.8951C125.382 32.8009 126.19 33.6767 126.936 34.0444ZM112.918 25.0094H117.007C119.798 25.0094 121.641 23.0038 121.641 19.9253C121.641 16.8467 119.798 14.8412 117.007 14.8412H112.918V25.0094Z" fill="#4E1411"/>
<path d="M127.57 24.1604C127.57 18.3711 132.119 13.9956 138.191 13.9956C144.236 13.9956 148.812 18.3711 148.812 24.1604C148.812 29.9498 144.236 34.3252 138.191 34.3252C132.119 34.3286 127.57 29.9498 127.57 24.1604ZM145.271 24.1604C145.271 18.3711 142.45 14.5605 138.191 14.5605C133.932 14.5605 131.11 18.3711 131.11 24.1604C131.11 29.9498 133.932 33.7603 138.191 33.7603C142.454 33.7637 145.271 29.9498 145.271 24.1604Z" fill="#4E1411"/>
<path d="M173.164 31.8985C173.164 32.7442 173.451 33.62 173.856 34.0445H169.048C169.481 33.62 169.74 32.7442 169.74 31.8985V15.717L161.682 34.0445H161.106L153.074 15.717V31.1063C153.074 32.2929 153.65 33.4495 154.57 34.0445H150.856C151.776 33.4528 152.383 32.2929 152.383 31.1063V16.4223C152.383 15.5766 151.981 14.7009 151.374 14.2764H156.039L162.803 29.5821L169.566 14.2764H173.856C173.454 14.7009 173.164 15.5766 173.164 16.4223V31.8985Z" fill="#4E1411"/>
<path d="M204.366 24.1604C204.366 29.7793 199.674 34.0445 193.486 34.0445H184.964C185.397 33.62 185.656 32.7442 185.656 31.8985V16.4223C185.656 15.5766 185.397 14.7009 184.964 14.2764H193.486C199.674 14.2764 204.366 18.5415 204.366 24.1604ZM200.826 24.1604C200.826 18.5415 197.688 14.8413 192.968 14.8413H189.084V33.4796H192.968C197.691 33.4796 200.826 29.7793 200.826 24.1604Z" fill="#4E1411"/>
<path d="M222.415 30.1202V34.0445H207.187C207.62 33.62 207.879 32.7442 207.879 31.8985V16.4223C207.879 15.5766 207.62 14.7009 207.187 14.2764H222.129V18.1738C221.209 16.1683 219.393 14.8413 217.553 14.8413H211.304V23.7359H216.282C217.692 23.7359 219.103 22.9738 219.822 21.8173V26.2228C219.103 25.0663 217.692 24.3041 216.282 24.3041H211.304V33.4829H217.839C219.679 33.4795 221.495 32.1525 222.415 30.1202Z" fill="#4E1411"/>
<path d="M224.085 24.1604C224.085 18.458 228.634 13.9956 234.794 13.9956C239.2 13.9956 242.652 16.312 242.652 18.966C242.652 20.2095 241.844 21.0852 240.638 21.0852C239.459 21.0852 238.566 20.2396 238.566 19.1098C239.834 19.1098 240.696 18.488 240.696 17.5855C240.696 16.2017 238.624 14.8179 235.687 14.8179C230.821 14.8179 227.628 18.4045 227.628 24.137C227.628 29.8963 230.825 33.513 235.718 33.513C238.682 33.513 241.013 32.1559 242.222 30.04L242.856 30.4345C241.619 32.664 238.597 34.3319 234.825 34.3319C228.835 34.3286 224.085 30.0066 224.085 24.1604Z" fill="#4E1411"/>
<path d="M244.522 24.1604C244.522 18.3711 249.071 13.9956 255.143 13.9956C261.188 13.9956 265.764 18.3711 265.764 24.1604C265.764 29.9498 261.188 34.3252 255.143 34.3252C249.071 34.3286 244.522 29.9498 244.522 24.1604ZM262.224 24.1604C262.224 18.3711 259.403 14.5605 255.143 14.5605C250.884 14.5605 248.063 18.3711 248.063 24.1604C248.063 29.9498 250.884 33.7603 255.143 33.7603C259.403 33.7637 262.224 29.9498 262.224 24.1604Z" fill="#4E1411"/>
<path d="M286.72 34.0444H283.036C282.229 33.6199 281.51 32.9146 281.05 32.0957L278.344 26.9547C278.027 26.3631 277.51 25.855 276.818 25.5709H272.702V31.8951C272.702 32.7408 272.991 33.6165 273.421 34.041H268.586C269.018 33.6165 269.277 32.7408 269.277 31.8951V16.4189C269.277 15.5732 269.018 14.6975 268.586 14.2729H277.537C281.738 14.2729 284.965 16.6462 284.965 19.9219C284.965 22.83 282.433 25.0327 278.89 25.484C280.474 25.8216 281.796 26.5837 282.403 27.8272L284.675 31.8951C285.166 32.8009 285.974 33.6767 286.72 34.0444ZM272.702 25.0094H276.791C279.581 25.0094 281.425 23.0038 281.425 19.9253C281.425 16.8467 279.581 14.8412 276.791 14.8412H272.702V25.0094Z" fill="#4E1411"/>
<path d="M16.9995 56.8742C16.451 56.2692 16.2942 55.6508 16.7542 54.9288C16.2363 54.4709 15.6775 54.0965 15.2311 53.5985C14.5769 52.8698 14.3145 52.0341 14.4542 51.0781C14.6212 49.9316 15.6161 49.0525 16.7917 48.9991C17.6981 48.9589 18.6078 49.3133 19.395 50.0219C17.8071 50.1255 17.3437 51.3322 17.6674 52.2848C18.0967 53.5349 19.8481 54.4207 21.2111 54.0731C20.9487 53.8258 20.9215 53.1472 20.9487 52.8999C21.0101 52.3684 21.2179 51.867 21.5791 51.6664C21.8926 53.8258 23.552 54.4141 24.932 54.3004C26.8538 54.14 27.5489 53.8258 28.8062 51.9773C29.1878 51.4157 29.1197 50.7439 28.8607 50.2793C27.3683 50.5132 27.3444 50.5066 26.5573 49.8915C27.9816 49.5004 28.4553 48.511 28.4041 47.1807C28.3598 46.0141 27.9816 45.4726 26.847 45.0414C27.0275 45.2821 27.0514 45.5829 26.9151 45.8069C26.7379 46.0977 26.3801 46.1111 26.2847 46.1144C26.0155 46.1244 25.6305 46.0175 25.484 45.6999C25.2864 45.2788 25.6816 44.8375 25.7259 44.7874C25.9201 44.5567 26.2336 44.4197 26.663 44.3829C27.4058 44.3161 28.1315 44.6303 28.6563 45.1517C29.7841 46.2682 30.2101 47.6888 30.4009 49.1829C30.5338 50.2291 30.3532 51.282 30.0465 52.2848C29.256 54.8753 27.2729 56.0553 24.7037 56.4831C23.293 56.7205 21.8824 56.7238 20.4512 56.5466C19.3098 56.4096 18.1172 56.2826 16.9995 56.8742Z" fill="#F2BF96"/>
<path d="M19.3404 39.693C19.3677 39.6596 19.4222 39.6596 19.4529 39.6896C19.9265 40.1442 20.073 40.7158 20.131 41.2607C20.2707 42.6211 21.0714 43.4768 22.189 44.132C23.0477 44.6367 23.8757 45.1715 24.5197 45.9436C25.5215 47.1403 25.6884 49.069 24.8775 50.2556C24.4345 50.9041 23.8348 51.2851 23.0102 51.2851C22.0425 51.2818 21.2384 50.6166 21.3338 49.7743C21.5621 47.762 23.2896 47.9492 24.0665 48.3169C24.1176 48.3403 24.1756 48.3069 24.1756 48.25C24.1722 47.518 23.7769 47.0433 23.3101 46.9163C22.4207 46.6757 21.8313 46.8628 21.1191 47.8188C21.1055 47.8389 21.0782 47.8523 21.0544 47.8523C20.6319 47.8489 20.4274 47.5982 20.4444 47.2071C20.4819 46.3715 21.8142 45.9303 21.8142 45.9303C21.8142 45.9303 20.3184 45.5927 19.8175 46.308C19.5721 46.659 19.3064 46.9163 19.0236 47.0935C17.6061 47.9759 16.1818 45.8902 17.5175 44.8941C17.8276 44.6634 18.2296 44.4228 18.7339 44.1554C18.7782 44.132 18.7919 44.0751 18.7578 44.0384C18.4034 43.6673 17.8787 43.4133 17.8582 42.825C17.848 42.5242 17.8855 42.2434 17.9979 41.9793C18.1172 41.7052 18.3898 41.5281 18.6862 41.488C18.7203 41.4846 18.7476 41.4545 18.751 41.4211C18.8089 40.8027 18.8941 40.2011 19.3404 39.693Z" fill="#F2BF96"/>
<path d="M13.0913 47.4616C13.1492 47.2176 13.1662 47.0438 13.2344 46.89C13.4831 46.3218 14.001 46.1045 14.5224 46.3351C15.0301 46.5624 15.1834 47.1039 14.8938 47.6722C14.5803 48.2972 13.6876 48.7251 12.9107 48.6148C11.7351 48.4476 10.856 47.7089 10.2699 46.2716C9.53735 44.4733 10.1336 42.3842 11.6976 41.2009C12.7301 40.4221 13.909 39.9642 15.197 39.7903C15.9637 39.6867 16.5328 39.797 16.9553 40.138C17.4221 40.5123 17.5482 41.1875 17.2653 41.709C17.1427 41.9396 16.9893 42.06 16.7542 42.1101C16.2125 42.2271 15.6843 41.8327 15.5991 41.2945C15.5855 41.2043 15.5719 41.0906 15.5548 40.9502C14.7677 40.5591 13.7182 40.8767 13.4252 41.2544C14.0351 41.495 14.0351 42.1101 13.8511 42.4276C13.5956 42.8722 12.6756 42.6984 12.3996 43.3535C12.4609 43.3435 13.0879 43.3435 12.9618 44.0087C12.1645 44.2627 11.4966 44.6906 11.5068 45.6265C11.517 46.4655 12.0793 47.1173 13.0913 47.4616Z" fill="#F2BF96"/>
<path d="M31.5563 4.07779L31.539 4.06122C31.5424 4.0579 31.5494 4.05458 31.5528 4.05127C31.5494 4.0579 31.5529 4.07116 31.5563 4.07779Z" fill="#F2BF96"/>
<path d="M30.1215 55.8311C29.3344 58.1174 29.5286 58.2544 30.5576 58.6321C30.527 58.7124 30.3839 59.0533 30.0159 59.2138C29.607 59.3943 29.2219 59.2204 29.0822 59.1603C28.6154 58.953 28.4212 58.5419 28.3735 58.4282C28.2951 58.5853 28.1418 58.8427 27.8658 59.07C27.6818 59.2204 27.3513 59.4878 26.8742 59.4778C26.3563 59.4678 26.0156 59.1335 25.9338 59.0466C24.0427 59.8154 22.4242 59.1168 20.8363 58.1475C24.1687 58.3246 27.4705 58.445 30.1215 55.8311Z" fill="#F2BF96"/>
<path d="M5.31216 44.5933C5.96979 46.1676 6.97838 47.0501 8.28001 47.6551C9.33972 48.1464 10.4676 48.4974 11.4421 49.1626C11.851 49.4434 12.2633 49.7141 12.5665 50.1152C12.7982 50.4227 12.9379 50.7303 12.9379 51.0478C12.9379 51.6127 12.328 52.0105 11.7862 51.8166C11.7828 51.8166 11.7794 51.8133 11.776 51.8133C11.1593 51.4389 11.3399 50.9475 11.6022 50.4829C11.0775 49.898 10.379 49.8077 9.74519 49.6172C8.85586 49.3464 7.97334 49.0723 7.2169 48.5342C5.94253 47.6283 5.09068 46.4919 5.31216 44.5933Z" fill="#F2BF96"/>
<path d="M10.2563 51.5594C10.5118 51.8468 10.7231 52.1744 10.9991 52.4418C11.8271 53.2374 12.2905 53.3042 13.3809 52.8329C13.6773 52.9365 13.4013 53.829 13.4013 53.829C13.4013 53.829 14.2804 53.8591 14.3247 54.2C13.9022 54.7181 13.0878 54.7549 12.4575 54.4474C12.0009 54.2234 8.96487 52.0474 8.24591 50.6402C8.24591 50.6368 9.72132 50.9611 10.2563 51.5594Z" fill="#F2BF96"/>
<path d="M8.82517 43.8281C8.89672 44.9446 9.0262 45.9741 9.6225 47.0036C8.75702 46.7963 8.08917 46.4688 7.44858 45.9507C7.71436 45.5797 8.02102 45.2755 7.98354 44.7607C7.95628 44.3329 8.32769 44.0387 8.82517 43.8281Z" fill="#F2BF96"/>
<path d="M0 31.5072C0.310074 30.7551 0.804151 30.344 1.66622 30.4276C1.85363 29.7691 1.94563 29.1139 2.20119 28.4989C2.576 27.5997 3.22341 26.998 4.15704 26.6939C5.27808 26.3295 6.52178 26.8109 7.09422 27.8203C7.53378 28.5992 7.61556 29.5585 7.31571 30.5612C6.51497 29.2142 5.20652 29.3412 4.48074 30.0532C3.53007 30.9858 3.50281 32.9178 4.42622 33.964C4.53526 33.6231 5.14178 33.2955 5.3803 33.2119C5.89141 33.0314 6.44341 32.9913 6.78756 33.2153C4.95778 34.452 5.15541 36.1701 5.87778 37.3333C6.87956 38.9512 7.47585 39.4225 9.72474 39.7032C10.4096 39.7902 10.9923 39.4291 11.3024 38.9979C10.4267 37.7913 10.4199 37.7679 10.6311 36.8019C11.6193 37.8782 12.7369 37.8548 13.9261 37.2197C14.9722 36.6615 15.2959 36.0899 15.1868 34.9033C15.0471 35.1673 14.7847 35.3244 14.519 35.3044C14.1748 35.2776 14.001 34.9701 13.9567 34.8899C13.8273 34.6593 13.7557 34.2715 13.9772 34.0041C14.277 33.6431 14.8529 33.7969 14.9176 33.8103C15.2141 33.8804 15.4799 34.091 15.7047 34.452C16.0966 35.0771 16.1307 35.8526 15.8887 36.5445C15.3708 38.0319 14.2668 39.0381 12.9856 39.8704C12.0895 40.4553 11.0468 40.7629 9.99393 40.94C7.27482 41.4013 5.31896 40.1779 3.78222 38.1155C2.93718 36.9824 2.30682 35.7456 1.83319 34.4086C1.45156 33.3289 1.03585 32.2292 0 31.5072Z" fill="#F2BF96"/>
<path d="M16.7235 25.9217C16.7644 25.9317 16.7917 25.9785 16.7781 26.0186C16.5736 26.637 16.117 27.0214 15.6434 27.3122C14.4644 28.0409 14.0419 29.1239 13.9397 30.3974C13.8613 31.3768 13.7386 32.3428 13.3229 33.2486C12.6755 34.6626 10.9923 35.6653 9.54754 35.4815C8.75702 35.3812 8.14369 35.0235 7.7791 34.2982C7.34976 33.4492 7.59851 32.4431 8.41288 32.1523C10.3517 31.457 10.9514 33.0581 10.9582 33.9071C10.9582 33.9606 11.0161 33.9974 11.0672 33.974C11.7351 33.6464 11.9907 33.0849 11.8987 32.6202C11.7215 31.7311 11.2887 31.2966 10.0995 31.096C10.0757 31.0927 10.0518 31.076 10.0416 31.0526C9.85762 30.6815 9.99391 30.3907 10.3585 30.2303C11.1354 29.8927 12.1338 30.8654 12.1338 30.8654C12.1338 30.8654 11.776 29.4013 10.9003 29.2776C10.4709 29.2175 10.12 29.1005 9.83035 28.93C8.39243 28.0776 9.6668 25.8983 11.1695 26.627C11.5204 26.7974 11.9191 27.0414 12.3825 27.3657C12.4234 27.3924 12.4813 27.3791 12.4984 27.3356C12.6789 26.8576 12.6789 26.286 13.2071 26.0052C13.4763 25.8615 13.7489 25.7713 14.0419 25.7512C14.3452 25.7345 14.628 25.8916 14.7984 26.1389C14.8188 26.1657 14.8529 26.1791 14.887 26.1657C15.4764 25.9451 16.0625 25.7512 16.7235 25.9217Z" fill="#F2BF96"/>
<path d="M6.85229 23.8861C7.10103 23.8293 7.268 23.7658 7.43837 23.7558C8.06874 23.7223 8.49807 24.08 8.51851 24.6382C8.53555 25.1864 8.10962 25.5608 7.46222 25.5608C6.75348 25.5641 5.96296 24.9725 5.71763 24.2371C5.34622 23.1307 5.62903 22.031 6.68192 20.8745C7.99718 19.4305 10.1677 19.0227 11.9464 19.8717C13.1185 20.4299 14.059 21.2655 14.7915 22.3185C15.2277 22.9435 15.3776 23.4951 15.2584 24.0165C15.1255 24.5948 14.5633 25.0026 13.9635 24.9858C13.6978 24.9792 13.5206 24.8989 13.3707 24.7151C13.0231 24.2906 13.1458 23.6521 13.599 23.3379C13.6773 23.2845 13.7727 23.2243 13.892 23.1441C13.8988 22.2783 13.1424 21.4995 12.6653 21.4093C12.7164 22.051 12.1542 22.3251 11.7862 22.3084C11.2649 22.285 11.0161 21.3959 10.2972 21.446C10.3313 21.4928 10.6107 22.0477 9.94962 22.2315C9.36355 21.6432 8.67526 21.2488 7.82681 21.6733C7.06015 22.0577 6.7194 22.8432 6.85229 23.8861Z" fill="#F2BF96"/>
<path d="M6.79097 42.571C4.35127 42.8952 4.31379 43.1259 4.42623 44.1989C4.34105 44.2089 3.96623 44.2356 3.65275 43.9816C3.30861 43.7008 3.29157 43.2863 3.28816 43.1359C3.27112 42.6312 3.56075 42.2802 3.64253 42.1866C3.46535 42.1866 3.16209 42.1666 2.83157 42.0228C2.61349 41.9292 2.22164 41.7588 2.0172 41.3343C1.79912 40.8763 1.94905 40.4251 1.98994 40.3147C0.446382 38.9978 0.364604 37.263 0.541789 35.4346C1.86727 38.4529 3.22342 41.4078 6.79097 42.571Z" fill="#F2BF96"/>
<path d="M6.00726 15.7769C4.86238 17.0571 4.50801 18.3339 4.53186 19.7445C4.55231 20.8944 4.7363 22.0409 4.56253 23.1941C4.49097 23.6787 4.42282 24.1601 4.19453 24.6046C4.01734 24.9456 3.79586 25.203 3.50964 25.3467C2.99512 25.5974 2.36134 25.2397 2.2966 24.6782C2.2966 24.6748 2.2966 24.6715 2.2966 24.6681C2.36475 23.9629 2.89289 23.8994 3.43127 23.9228C3.73112 23.2008 3.50282 22.5456 3.39719 21.9072C3.24727 21.008 3.10756 20.1089 3.26089 19.203C3.51986 17.6788 4.17749 16.4287 6.00726 15.7769Z" fill="#F2BF96"/>
<path d="M1.85021 23.2175C1.7037 23.5718 1.49584 23.9028 1.37658 24.2638C1.01881 25.3468 1.16192 25.7813 2.07851 26.53C2.11599 26.8342 1.17896 26.9913 1.17896 26.9913C1.17896 26.9913 1.54014 27.7768 1.25051 27.9673C0.589475 27.8236 0.194214 27.125 0.194214 26.4365C0.194214 25.9351 0.831401 22.3017 1.7957 21.0415C1.7991 21.0415 2.15688 22.4822 1.85021 23.2175Z" fill="#F2BF96"/>
<path d="M8.26977 18.5245C7.28162 19.0827 6.3991 19.6543 5.72444 20.6403C5.53021 19.788 5.53362 19.0559 5.72103 18.2604C6.17762 18.3306 6.59332 18.461 7.04651 18.2036C7.42473 17.983 7.85747 18.1768 8.26977 18.5245Z" fill="#F2BF96"/>
<path d="M14.4065 4.41219C15.2243 4.2952 15.8376 4.50913 16.1988 5.28127C16.8701 5.10745 17.497 4.85675 18.1683 4.76316C19.1496 4.62946 20.0049 4.87013 20.7409 5.51191C21.6268 6.2807 21.8278 7.57428 21.2281 8.56703C20.7647 9.33249 19.9606 9.88402 18.9281 10.1381C19.7118 8.78096 18.9383 7.73473 17.9502 7.48069C16.6486 7.14643 14.9346 8.09573 14.4781 9.40268C14.8324 9.32246 15.4253 9.67343 15.6195 9.83388C16.0386 10.1782 16.3521 10.6227 16.3249 11.0272C14.3145 10.0979 12.9004 11.1341 12.2394 12.3308C11.3194 13.9921 11.2035 14.7375 12.0895 16.7865C12.3586 17.4082 12.9686 17.7224 13.5069 17.7659C14.1271 16.4154 14.1441 16.3987 15.1016 16.0912C14.6518 17.4717 15.2345 18.4043 16.393 19.0929C17.4118 19.6979 18.0797 19.6845 19.0678 18.9926C18.7646 19.0093 18.492 18.8622 18.3761 18.6282C18.2262 18.3241 18.4102 18.0199 18.4579 17.943C18.5976 17.7157 18.9009 17.4617 19.2484 17.5152C19.7152 17.5854 19.872 18.1502 19.8924 18.2171C19.981 18.5046 19.9265 18.8355 19.7255 19.2065C19.3745 19.855 18.7101 20.2728 17.9775 20.4165C16.4066 20.7274 14.9653 20.2962 13.5853 19.631C12.621 19.1664 11.8237 18.4377 11.1354 17.6355C9.36013 15.5631 9.44872 13.2901 10.4948 10.9503C11.0672 9.6634 11.8407 8.50687 12.7743 7.43055C13.5308 6.56148 14.2941 5.65564 14.4065 4.41219Z" fill="#F2BF96"/>
<path d="M27.7499 15.7705C27.7601 15.8106 27.7329 15.8574 27.692 15.8674C27.0446 16.0078 26.4755 15.8106 25.9815 15.5599C24.7446 14.9282 23.5792 15.1154 22.4037 15.6702C21.5041 16.0981 20.5909 16.4791 19.5823 16.5861C18.0115 16.7499 16.2806 15.8273 15.7149 14.5103C15.4049 13.7883 15.4117 13.0897 15.8649 12.4145C16.3964 11.6223 17.4084 11.3282 18.0729 11.873C19.6607 13.1666 18.5533 14.4769 17.8105 14.9148C17.7628 14.9415 17.7594 15.0084 17.8071 15.0385C18.4306 15.4396 19.0542 15.3727 19.4188 15.0619C20.1139 14.4635 20.2775 13.8786 19.8549 12.7722C19.8447 12.7488 19.8481 12.7221 19.8617 12.702C20.0969 12.3577 20.4206 12.3276 20.7443 12.5583C21.436 13.0463 21.0782 14.3833 21.0782 14.3833C21.0782 14.3833 22.1856 13.3438 21.8517 12.5382C21.6881 12.1438 21.6132 11.7861 21.62 11.4586C21.6472 9.814 24.2096 9.79061 24.322 11.4352C24.3493 11.8162 24.3323 12.2775 24.2812 12.8357C24.2778 12.8825 24.3186 12.926 24.3663 12.9193C24.8775 12.8324 25.3817 12.5449 25.8929 12.8491C26.1552 13.0062 26.3733 13.19 26.5335 13.4273C26.7004 13.6747 26.7038 13.9956 26.5743 14.263C26.5607 14.2931 26.5675 14.3298 26.5948 14.3499C27.0991 14.7276 27.5659 15.1254 27.7499 15.7705Z" fill="#F2BF96"/>
<path d="M24.5708 6.38081C24.7446 6.56131 24.8843 6.6716 24.9797 6.81199C25.3272 7.3301 25.2284 7.87494 24.7446 8.17243C24.271 8.46324 23.7292 8.28942 23.3987 7.74123C23.0409 7.13957 23.1635 6.17356 23.6849 5.5953C24.472 4.72288 25.5862 4.40868 27.1298 4.71954C29.0652 5.10728 30.5167 6.74181 30.6632 8.67717C30.7587 9.95069 30.4997 11.1707 29.9409 12.3206C29.6104 13.0058 29.2015 13.4103 28.6801 13.5707C28.1043 13.7479 27.4637 13.4805 27.1707 12.9624C27.0446 12.7351 27.0241 12.5412 27.1127 12.3239C27.3104 11.8159 27.9373 11.5986 28.4416 11.8259C28.5268 11.866 28.629 11.9128 28.7619 11.9763C29.5286 11.5451 29.8318 10.5122 29.6717 10.0643C29.1333 10.432 28.6086 10.0911 28.4382 9.77019C28.1997 9.3156 28.8539 8.66045 28.4484 8.07216C28.4246 8.12564 28.077 8.64039 27.583 8.17243C27.8044 7.37689 27.8078 6.59807 27.0037 6.08999C26.2847 5.6354 25.4192 5.74237 24.5708 6.38081Z" fill="#F2BF96"/>
<path d="M8.08236 15.7401C6.56947 13.8382 6.34458 13.9217 5.45865 14.5568C5.40754 14.4866 5.19628 14.1858 5.26102 13.7913C5.33258 13.3568 5.69036 13.1362 5.81984 13.056C6.25258 12.7852 6.70917 12.8554 6.83184 12.8788C6.73984 12.7284 6.60695 12.461 6.56606 12.11C6.5388 11.8794 6.49109 11.4582 6.76369 11.0738C7.05672 10.656 7.53036 10.5591 7.64962 10.539C8.03465 8.56687 9.52028 7.62427 11.2172 6.85547C9.23065 9.49277 7.31228 12.1301 8.08236 15.7401Z" fill="#F2BF96"/>
<path d="M31.2834 1.58098C29.5797 1.25675 28.2747 1.59769 27.0446 2.32972C26.0428 2.92805 25.1262 3.66007 24.0222 4.09461C23.5588 4.27845 23.1022 4.4623 22.5945 4.49238C22.2061 4.51243 21.8653 4.45895 21.5961 4.28514C21.1157 3.97428 21.1123 3.25897 21.5723 2.91802C21.5757 2.91468 21.5791 2.91468 21.5791 2.91134C22.2367 2.61385 22.557 3.02832 22.8058 3.49963C23.5929 3.39267 24.0529 2.86789 24.564 2.45341C25.283 1.87179 26.0019 1.30021 26.8776 0.975975C28.3564 0.42779 29.791 0.357595 31.2834 1.58098Z" fill="#F2BF96"/>
<path d="M22.6354 1.80519C22.2504 1.85867 21.8551 1.85197 21.4769 1.9322C20.3422 2.17286 20.0355 2.51715 19.8345 3.67035C19.5858 3.85753 18.9724 3.13888 18.9724 3.13888C18.9724 3.13888 18.4613 3.84082 18.1478 3.69375C17.94 3.062 18.3557 2.37342 18.9656 2.02913C19.4086 1.77844 22.9284 0.484855 24.5231 0.668697C24.5265 0.665355 23.4395 1.69488 22.6354 1.80519Z" fill="#F2BF96"/>
<path d="M30.0056 4.88034C29.0175 4.32547 28.0668 3.8642 26.8606 3.78732C27.5114 3.19234 28.1588 2.82465 28.9527 2.58398C29.1231 3.00515 29.2151 3.42297 29.6717 3.67701C30.0567 3.89428 30.101 4.35556 30.0056 4.88034Z" fill="#F2BF96"/>
<path d="M8.21866 16.4593C8.24933 16.466 8.30725 16.4762 8.30725 16.4829C8.30384 16.5504 8.27659 16.5369 8.2357 16.4424L8.21866 16.4593Z" fill="#F2BF96"/>
<path d="M61.4969 35.3245C62.2976 34.295 62.8598 33.1451 62.8667 31.8382C62.8701 30.9992 62.8019 30.1201 62.5464 29.3279C61.9807 27.573 61.456 25.8483 62.1273 23.943C60.8699 24.8188 60.4849 26.0522 60.7507 28.2215C60.243 28.1647 59.7591 28.2048 59.4865 28.7664C60.6314 29.4014 61.64 30.1468 61.7831 31.5206C61.9194 32.8142 61.4492 33.9507 60.7711 34.9802C60.243 34.6995 59.783 34.4521 59.2889 34.1847C59.3161 34.0677 59.3604 33.9206 59.3809 33.7702C59.5751 32.4566 59.1969 31.3234 58.1883 30.4376C57.6601 29.973 57.0604 30.1201 56.8321 30.7786C56.5868 31.4805 56.1847 32.0488 55.5476 32.4867C54.8422 32.9647 54.1914 33.5128 53.544 34.061C52.9 34.6059 52.4809 34.7262 51.9664 34.4387C51.0941 33.9541 50.7022 32.9312 51.244 32.1858C51.5984 31.7012 52.2458 31.5273 52.8284 31.6911C53.1624 31.7847 53.4861 31.9184 53.8166 32.0287C53.7246 31.1396 53.3634 30.7017 52.5388 30.4677C52.8318 29.9129 52.8046 29.5251 52.4536 29.2477C52.1265 28.9903 51.6222 29.0404 51.1793 29.3714C50.7295 29.7123 50.692 30.1301 51.1145 30.6883C51.3053 30.9457 51.4416 31.2265 51.1315 31.387C50.9714 31.4705 50.5659 31.3368 50.4296 31.1764C49.9083 30.5513 49.6357 29.7691 49.7379 28.9903C49.9798 27.202 51.1281 25.8984 52.3514 24.6349C52.4877 24.7486 52.5797 24.802 52.6478 24.8823C53.2816 25.6277 53.728 26.4633 53.8439 27.4427C53.9767 28.5491 54.8013 29.3079 55.8883 29.3145C56.9582 29.3212 57.7862 28.5992 57.9532 27.5229C57.9668 27.426 57.9975 27.3324 58.0247 27.2254C58.9447 27.2354 59.6364 26.8778 60.0555 26.099C60.4747 25.3201 60.3315 24.558 59.8647 23.8427C61.3197 23.114 61.8717 22.0478 61.4901 20.7542C61.0369 19.2166 60.0896 18.6584 58.2155 18.8355C58.1576 17.9865 57.8033 17.2946 56.9957 16.9102C56.1677 16.5158 55.384 16.6695 54.6446 17.201C54.5049 17.0506 54.3958 16.9102 54.263 16.7999C53.5031 16.1681 52.3889 16.1648 51.6222 16.7865C50.8726 17.3915 50.7056 18.4177 51.0975 19.2934C51.3905 19.9486 51.5881 20.6572 51.7449 21.3592C51.8267 21.7235 51.7313 22.1246 51.7108 22.5491C50.1877 22.2984 48.835 21.9308 47.6321 21.1419C46.7462 20.5603 46.3135 19.7079 46.1772 18.7052C46.1261 18.3408 46.0613 17.8327 46.5861 17.7793C47.1108 17.7291 46.9881 18.2138 47.0222 18.5447C47.0699 18.9993 47.2607 19.3436 47.7889 19.387C48.3409 19.4338 48.852 19.1865 48.9644 18.7787C49.1041 18.2673 48.8418 17.9531 48.3818 17.7592C48.3579 17.7492 48.3477 17.7057 48.3273 17.6723C48.9406 17.0506 48.743 16.3921 48.4465 15.6868C48.1944 16.0244 47.9865 16.3586 47.7412 16.6495C47.3255 17.1375 46.6133 17.3146 46.0409 17.0138C45.3117 16.6294 45.08 15.6701 45.465 14.8378C45.7036 14.3264 46.1261 14.1559 46.9064 14.2361C47.5197 14.2996 48.1398 14.4333 48.7498 14.3899C49.8436 14.3163 50.8556 14.3899 51.7653 15.0885C52.1708 15.3993 52.5865 15.2456 52.7978 14.7743C52.8966 14.557 52.9545 14.3096 52.9716 14.0723C53.067 12.7319 52.5797 11.6255 51.537 10.8133C51.7892 10.3052 52.0311 9.81386 52.2799 9.31247C53.452 9.80383 54.5151 10.4222 55.1625 11.5286C55.8713 12.7353 55.4828 13.9319 54.9615 15.1018C55.5305 15.3826 55.9258 15.142 56.2972 14.8211C57.5477 16.8032 58.6142 17.5854 59.8716 17.4483C58.3007 15.9241 57.8305 15.2656 57.3841 13.6745C56.672 11.1241 55.1727 9.33252 52.5218 8.56707C52.3753 8.52361 52.239 8.3732 52.2117 8.22613C52.0243 7.2434 51.5473 6.40775 50.9169 5.6423C50.7908 5.4852 50.6204 5.32809 50.4364 5.25456C49.5096 4.87684 48.5453 4.65624 47.5367 4.79329C47.2096 4.83674 47.0324 4.74648 46.8484 4.48242C45.8501 3.0685 44.5178 2.09581 42.7698 1.80834C41.9213 1.66795 41.0456 1.68133 40.1801 1.66461C38.732 1.63119 37.3724 1.34038 36.173 0.501389C36.1424 0.481333 36.0947 0.491369 36.0027 0.477999C36.7182 2.09247 37.9926 2.81781 39.7542 2.97492C39.5259 3.49302 39.4407 3.94761 39.8769 4.34872C42.2927 2.02561 44.6507 3.03508 46.167 4.96375C45.7921 5.38492 45.4378 5.78269 45.0595 6.2072C45.0221 6.1838 44.9369 6.12698 44.8449 6.07684C43.6727 5.43841 42.4733 5.41835 41.2841 5.98325C40.48 6.3643 40.3164 6.96263 41.1172 7.56763C41.5806 7.91861 41.935 8.47347 42.1905 9.00495C42.6028 9.86065 42.9197 10.7632 43.223 11.6657C43.3388 12.0099 43.4444 12.4545 43.3184 12.762C43.1173 13.2601 42.6675 13.5074 42.153 13.6044C41.5363 13.7213 40.8787 13.4941 40.5345 12.9793C40.1665 12.4278 40.3335 11.923 40.6674 11.4517C40.8616 11.1776 41.0899 10.9269 41.3387 10.6228C40.5073 10.5592 39.7985 10.5826 39.4135 11.3849C38.9262 10.9136 38.5207 10.82 38.1527 11.0874C37.8154 11.3314 37.7234 11.9063 37.9415 12.381C38.1527 12.8422 38.5344 12.9726 39.209 12.752C39.5089 12.6551 39.7883 12.6584 39.853 12.9592C39.8871 13.1197 39.6622 13.3436 39.5327 13.5208C39.4884 13.581 39.376 13.601 39.2942 13.6211C38.5173 13.7982 37.7302 13.8216 37.0078 13.4673C35.3893 12.6718 34.5273 11.2278 33.6958 9.75703C34.4387 9.23558 35.9345 8.99157 36.8681 9.20216C37.9006 9.43614 38.9058 8.92807 39.284 7.97878C39.6895 6.9526 39.2193 5.83283 38.1425 5.36487C38.088 5.26125 38.0573 5.19439 38.0028 5.09077C38.2073 4.29189 38.071 3.58995 37.4747 2.99497C36.8477 2.36322 36.0674 2.28634 35.2394 2.46684C34.9634 0.902502 34.1047 0.0601699 32.7758 0.00334586C32.7179 3.26433e-06 32.6566 0 32.5987 0V1.66127C32.5987 2.26628 32.8849 2.81781 33.3278 3.23897C33.8117 3.69691 34.0673 4.5827 33.9139 5.47851C35.6892 5.34481 36.6535 5.94982 36.9056 7.37042C36.3298 7.39716 35.7539 7.41387 35.1815 7.45732C34.575 7.50078 34.057 7.73143 33.6856 8.22947C33.3926 8.6239 33.0859 9.00495 32.6804 9.36595C32.6532 9.33587 32.6259 9.30244 32.5987 9.27236V11.3815C32.7554 11.3916 32.9156 11.4584 33.0655 11.5854C33.2358 11.7292 33.4028 11.903 33.5084 12.0968C34.8135 14.5002 36.9431 15.533 39.6213 15.4996C40.9332 15.4829 42.2416 15.2255 43.5228 15.0784C43.6455 15.9074 43.683 16.8868 43.9487 17.8027C44.2418 18.8088 44.6575 19.8049 45.1822 20.7141C46.0477 22.2216 47.4822 23.0204 49.1825 23.3881C49.1995 23.3915 49.2166 23.3948 49.2336 23.3981C49.7141 23.4817 50.215 23.5853 50.3887 24.0968C50.5591 24.6082 50.2081 24.9792 49.881 25.3335C48.7191 26.597 48.0444 28.0577 48.1671 29.7825C48.3034 31.6911 48.9781 33.4293 50.0787 35.0103C50.1673 35.1373 50.249 35.271 50.3342 35.4014C50.341 35.4148 50.3342 35.4348 50.3342 35.4783C48.7873 35.9897 47.3595 36.7251 46.1295 37.8081C44.4155 39.3189 43.6182 41.1674 43.9215 43.437C43.9317 43.5072 43.9351 43.574 43.9385 43.6442C43.976 44.6604 43.4172 45.0314 42.4393 44.6637C41.8464 44.4431 41.2535 44.2058 40.6367 44.0688C39.1102 43.7278 37.6893 44.0921 36.3468 44.8108C35.0043 45.5295 33.8969 46.5122 32.9496 47.6787C32.8338 47.8225 32.7179 47.9662 32.6021 48.1099V50.6269C33.471 50.6369 34.1729 51.0848 34.4727 51.9372C34.793 52.8598 35.4132 53.4614 36.2855 53.8592C36.3468 53.8859 36.3979 53.9327 36.4558 53.9662C35.9004 54.765 35.3791 54.9088 34.2853 54.628C34.0604 55.2932 33.9787 56.0486 33.5868 56.5901L33.5732 56.6101C32.9394 57.4826 32.6021 58.5255 32.6021 59.5984V59.9594C32.6634 59.9561 32.7213 59.9494 32.7793 59.936C33.7878 59.692 34.7181 59.2976 35.5018 58.5956C35.6313 58.482 35.897 58.4452 36.0844 58.4753C36.7114 58.5789 37.3213 58.7895 37.9483 58.8497C39.819 59.0302 41.4102 58.3416 42.8481 57.2285C44.1157 56.2458 45.5161 55.5974 47.1585 55.5405C47.1926 55.5405 47.2267 55.5004 47.305 55.4503C45.741 54.5611 44.2656 54.7617 42.8107 55.604C42.6812 55.0625 42.4904 54.6414 41.8838 54.5845C41.3727 57.5494 39.2704 58.4452 36.3945 57.6865C36.4899 56.7673 36.4661 56.9946 36.5615 56.0787C38.0505 55.9584 39.1784 55.2765 39.8292 53.9428C40.204 53.1773 39.8803 52.7963 39.0319 52.6926C38.4458 52.6224 37.8699 52.4787 37.3452 52.208C36.4456 51.7433 35.6074 51.155 34.776 50.5734C34.4898 50.3729 34.1627 50.0854 34.0775 49.7779C33.9276 49.2464 34.149 48.7785 34.5136 48.3974C34.9157 47.9762 35.696 47.7723 36.2378 47.9963C36.8375 48.2436 36.984 48.7551 37.001 49.32C37.0078 49.6408 36.9636 49.9617 36.9363 50.3628C37.645 49.945 38.1698 49.5005 38.0914 48.6748C38.163 48.6615 38.197 48.6481 38.2277 48.6514C38.7013 48.7116 39.0796 48.5812 39.2499 48.1099C39.393 47.7155 39.0625 47.1506 38.5855 46.9267C38.1391 46.7161 37.8018 46.8999 37.5121 47.2308C37.4304 47.3211 37.3895 47.4715 37.2907 47.515C37.1339 47.5852 36.9227 47.6554 36.783 47.6019C36.6773 47.5618 36.6024 47.3244 36.6024 47.1774C36.6024 47.037 36.6944 46.8765 36.7932 46.7595C37.3554 46.1044 38.0335 45.6063 38.9262 45.5061C40.6163 45.3122 42.1258 45.8871 43.5876 46.6292C43.6114 46.6425 43.6182 46.6893 43.6523 46.7696C43.1446 47.7055 42.4052 48.4475 41.3966 48.9055C40.4118 49.3534 39.9144 50.3628 40.2176 51.3556C40.5209 52.345 41.5193 52.9366 42.5824 52.7595C42.6846 52.7428 42.7834 52.7294 42.8788 52.716C43.5433 54.5043 45.5434 54.8419 46.7667 53.4314C48.1637 54.6079 49.2234 54.7183 50.4603 53.8258C50.9646 53.4648 51.3156 53.0035 51.4791 52.4085C51.687 51.6598 51.4893 50.9812 51.077 50.3194C51.9255 49.9952 52.4775 49.4436 52.6035 48.5712C52.7364 47.6754 52.3071 47.0035 51.6222 46.4821C52.2526 45.2687 52.072 44.2158 51.1418 43.5807C50.2013 42.9356 49.2507 43.1997 48.2114 44.0855C47.5674 44.6336 46.6917 44.9278 45.9046 45.2988C45.6218 45.4325 45.4378 45.2754 45.4276 44.9512C45.4037 44.1356 45.3287 43.32 45.3594 42.5077C45.3935 41.6721 45.5638 40.8398 46.0988 40.1512C46.5793 39.5328 47.1926 39.0482 47.9967 38.9111C48.1671 38.881 48.3852 39.0983 48.5794 39.2019C48.4567 39.3624 48.3579 39.5462 48.208 39.6766C48.0956 39.7735 47.915 39.7902 47.7753 39.8638C47.3834 40.0743 47.2335 40.3952 47.3664 40.8264C47.5231 41.3345 47.915 41.6922 48.3238 41.6621C48.777 41.632 49.0121 41.3546 49.1041 40.9367C49.1178 40.8732 49.1314 40.8064 49.145 40.7395C49.9458 41.0002 50.4501 40.8632 51.1179 40.2047C50.7363 40.0944 50.3615 40.0108 50.0003 39.8805C49.5301 39.71 49.1791 39.4159 49.1007 38.8844C48.9781 38.0788 49.5164 37.3902 50.4126 37.2131C51.3326 37.0326 51.8301 37.3435 52.0516 38.2393C52.2185 38.9111 52.2901 39.6164 52.5456 40.2548C52.9239 41.1941 53.1044 42.0966 52.7569 43.086C52.5695 43.6175 52.8489 43.9584 53.4247 44.0186C53.5985 44.0353 53.7791 44.0253 53.9529 43.9885C55.3635 43.7011 56.3176 42.8788 56.8321 41.6086C57.3944 41.6855 57.9293 41.759 58.4915 41.8359C58.4166 43.0593 58.1236 44.2125 57.2956 45.1618C56.3449 46.2515 55.0364 46.2381 53.7314 46.1311C53.6019 46.7629 54.0313 47.037 54.4333 47.3278C53.1249 48.4442 52.5218 49.7645 52.9511 51.4492C53.5201 49.9216 54.5594 48.7751 55.919 47.9027C58.1406 46.4754 59.3604 44.53 59.3093 41.8794C59.3059 41.7122 59.415 41.505 59.5615 41.4247C60.4576 40.9401 61.1153 40.2281 61.6604 39.4025C61.7524 39.2621 61.8513 39.095 61.8649 38.9345C61.9398 37.9184 61.8887 36.9123 61.4049 35.9864C61.255 35.7156 61.3231 35.5485 61.4969 35.3245ZM53.3021 19.982C53.1794 19.5876 53.0499 19.1932 52.9204 18.7987C54.4367 18.6149 55.3329 19.3336 55.6975 21.0349C55.8065 20.9748 55.9087 20.9246 56.0041 20.8678C56.8151 20.3865 58.0281 20.6037 58.587 21.3491C58.6619 21.4528 58.6721 21.6433 58.6415 21.777C58.3961 22.8867 57.7964 23.3881 56.6379 23.4817C56.6107 23.4851 56.5834 23.5118 56.5561 23.5285C57.1933 25.2533 56.9889 26.0388 55.6259 26.9647C55.493 26.5703 55.3704 26.1825 55.2341 25.8015C54.9547 25.0226 54.4878 24.4644 53.6803 24.0801C52.1947 23.3748 52.273 23.6589 53.067 22.2149C53.4861 21.4628 53.544 20.7608 53.3021 19.982ZM45.1107 12.9626C44.3883 12.4779 44.051 11.7793 44.269 10.9804C44.5655 9.90745 44.4939 8.93141 43.8942 7.99214C44.8142 7.62111 45.4071 7.84173 46.1567 8.82111C46.276 8.66735 46.3884 8.52027 46.5043 8.37988C47.1142 7.64785 47.9184 7.31694 48.869 7.2668C49.1825 7.25009 49.3018 7.37042 49.3733 7.65788C49.6425 8.74422 49.4585 9.72361 48.6646 10.6194C49.6289 10.8835 50.2661 11.3815 50.2081 12.4846C49.0939 12.2305 48.1364 12.4278 47.2096 13.0461C46.552 13.484 45.799 13.4239 45.1107 12.9626ZM46.2181 46.5757C47.1006 46.7194 47.8161 46.5556 48.5113 46.0843C48.8452 45.857 49.1655 45.6164 49.5233 45.3623C50.1127 46.8531 49.7481 47.7523 48.1841 48.6915C49.1859 49.34 49.2711 50.2258 48.8997 51.2386C48.7941 51.5194 48.6305 51.6431 48.317 51.6598C47.1858 51.7233 46.552 51.3389 46.0375 50.2057C45.4889 50.7472 44.8858 51.2419 44.0748 51.1183C43.5058 51.0314 42.9674 50.764 42.2996 50.5367C42.8686 50.1088 43.2911 49.8046 43.6966 49.4804C44.2384 49.0459 44.4905 48.4943 44.603 47.7891C44.8756 46.0476 44.5961 46.3049 46.2181 46.5757ZM59.1287 38.6872C58.1747 39.2253 57.2036 39.3223 56.1336 38.8877C56.1643 39.8838 55.8542 40.6259 54.7911 40.9133C54.7025 39.827 54.2493 38.9914 53.3736 38.3262C52.716 37.8248 52.5013 37.0894 52.7637 36.2638C53.0329 35.4248 53.6292 34.9167 54.4913 34.8766C55.585 34.8298 56.4812 34.4655 57.1967 33.5964C57.8271 34.4153 57.7998 34.9101 57.1013 36.0098C58.1849 36.2705 58.9413 36.9022 59.3877 37.9017C59.5581 38.2727 59.4967 38.4799 59.1287 38.6872Z" fill="#F2BF96"/>
<path d="M24.8434 36.7518V22.5224C24.8434 21.7436 24.6049 20.938 24.2096 20.5503H28.6563C28.2576 20.9414 27.9952 21.7436 27.9952 22.5224V36.7518C27.9952 37.5307 28.261 38.3362 28.6563 38.724H24.2096C24.6049 38.3362 24.8434 37.5307 24.8434 36.7518Z" fill="#F2BF96"/>
<path d="M32.8883 20.5435H30.4145C30.4145 20.7173 30.4145 20.8911 30.4145 21.0616H32.4113C36.7523 21.0616 39.6384 24.4643 39.6384 29.632C39.6384 34.7996 36.7523 38.2024 32.4113 38.2024H30.5849C30.5883 38.3762 30.5883 38.55 30.5917 38.7205H32.8883C38.5787 38.7205 42.8959 34.7996 42.8959 29.632C42.8924 24.4643 38.5787 20.5435 32.8883 20.5435Z" fill="#F2BF96"/>
<path d="M85.1 41.3608V45.987H84.2379V42.0895H82.3775L82.3366 43.2461C82.3128 43.8945 82.2616 44.4193 82.1765 44.8204C82.0913 45.2249 81.955 45.5291 81.7642 45.7396C81.5768 45.9502 81.3144 46.0539 80.9839 46.0539C80.868 46.0539 80.7079 46.0305 80.5068 45.987L80.5682 45.2416C80.6261 45.2583 80.6942 45.2683 80.7692 45.2683C81.0418 45.2683 81.236 45.1079 81.3519 44.7903C81.4677 44.4695 81.5359 43.9681 81.5631 43.2795L81.6313 41.3642H85.1V41.3608Z" fill="#F2BF96"/>
<path d="M89.9658 45.2654V45.984H86.4289V41.3579H89.8704V42.0766H87.3046V43.2799H89.5808V43.9885H87.3046V45.2654H89.9658Z" fill="#F2BF96"/>
<path d="M95.1178 41.3608V45.987H94.2557V42.0895H91.8092V45.987H90.9471V41.3608H95.1178Z" fill="#F2BF96"/>
<path d="M100.634 41.3608V45.987H99.7587V44.0048H97.319V45.987H96.4433V41.3608H97.319V43.2695H99.7587V41.3608H100.634Z" fill="#F2BF96"/>
<path d="M102.836 45.7434C102.451 45.5395 102.147 45.2553 101.926 44.891C101.704 44.5266 101.595 44.1222 101.595 43.6709C101.595 43.223 101.704 42.8152 101.926 42.4509C102.147 42.0865 102.451 41.8024 102.836 41.5985C103.221 41.3946 103.653 41.291 104.137 41.291C104.621 41.291 105.05 41.3946 105.439 41.5985C105.824 41.8024 106.127 42.0865 106.349 42.4475C106.57 42.8085 106.679 43.2163 106.679 43.6709C106.679 44.1255 106.57 44.5333 106.349 44.8943C106.127 45.2553 105.824 45.5395 105.439 45.7434C105.054 45.9472 104.618 46.0509 104.137 46.0509C103.657 46.0509 103.224 45.9506 102.836 45.7434ZM104.986 45.0915C105.238 44.9512 105.435 44.7573 105.579 44.5099C105.722 44.2626 105.793 43.9818 105.793 43.6743C105.793 43.3668 105.722 43.086 105.579 42.8386C105.435 42.5913 105.238 42.3974 104.986 42.257C104.734 42.12 104.451 42.0498 104.137 42.0498C103.824 42.0498 103.541 42.12 103.289 42.257C103.037 42.3974 102.839 42.5913 102.696 42.8386C102.553 43.086 102.481 43.3668 102.481 43.6743C102.481 43.9818 102.553 44.2626 102.696 44.5099C102.839 44.7573 103.037 44.9512 103.289 45.0915C103.541 45.2286 103.824 45.2988 104.137 45.2988C104.451 45.2988 104.734 45.2286 104.986 45.0915Z" fill="#F2BF96"/>
<path d="M107.654 41.3611H108.516V44.6468L111.047 41.3611H111.862V45.9872H111V42.7081L108.468 45.9872H107.654V41.3611ZM108.836 40.8062C108.632 40.6424 108.526 40.4051 108.523 40.0942H109.136C109.139 40.258 109.194 40.3817 109.296 40.472C109.398 40.5589 109.548 40.6057 109.746 40.6057C109.94 40.6057 110.09 40.5622 110.199 40.472C110.308 40.385 110.366 40.258 110.369 40.0942H110.976C110.972 40.4018 110.863 40.6391 110.656 40.8029C110.448 40.9667 110.141 41.0502 109.742 41.0502C109.344 41.0502 109.04 40.9667 108.836 40.8062Z" fill="#F2BF96"/>
<path d="M119.719 45.2587V46.9701H118.912V45.984H115.293V46.9701H114.479L114.485 45.2587H114.687C114.983 45.2453 115.191 45.0314 115.31 44.6136C115.429 44.1958 115.501 43.6008 115.528 42.8253L115.583 41.3579H119.038V45.2554H119.719V45.2587ZM116.148 44.403C116.073 44.8008 115.951 45.0882 115.784 45.2587H118.176V42.0866H116.329L116.295 42.9055C116.274 43.5072 116.223 44.0052 116.148 44.403Z" fill="#F2BF96"/>
<path d="M124.077 45.2654V45.984H120.54V41.3579H123.982V42.0766H121.416V43.2799H123.692V43.9885H121.416V45.2654H124.077Z" fill="#F2BF96"/>
<path d="M126.79 44.0353H125.914V45.984H125.052V41.3579H125.914V43.2933H126.817L128.17 41.3579H129.1L127.492 43.5974L129.161 45.984H128.17L126.79 44.0353Z" fill="#F2BF96"/>
<path d="M130.63 45.7434C130.245 45.5395 129.941 45.2553 129.72 44.891C129.499 44.5266 129.389 44.1222 129.389 43.6709C129.389 43.223 129.499 42.8152 129.72 42.4509C129.941 42.0865 130.245 41.8024 130.63 41.5985C131.015 41.3946 131.448 41.291 131.931 41.291C132.415 41.291 132.845 41.3946 133.233 41.5985C133.618 41.8024 133.921 42.0865 134.143 42.4475C134.364 42.8085 134.473 43.2163 134.473 43.6709C134.473 44.1255 134.364 44.5333 134.143 44.8943C133.921 45.2553 133.618 45.5395 133.233 45.7434C132.848 45.9472 132.412 46.0509 131.931 46.0509C131.451 46.0509 131.015 45.9506 130.63 45.7434ZM132.78 45.0915C133.032 44.9512 133.23 44.7573 133.373 44.5099C133.516 44.2626 133.587 43.9818 133.587 43.6743C133.587 43.3668 133.516 43.086 133.373 42.8386C133.23 42.5913 133.032 42.3974 132.78 42.257C132.528 42.12 132.245 42.0498 131.931 42.0498C131.618 42.0498 131.335 42.12 131.083 42.257C130.831 42.3974 130.633 42.5913 130.49 42.8386C130.347 43.086 130.275 43.3668 130.275 43.6743C130.275 43.9818 130.347 44.2626 130.49 44.5099C130.633 44.7573 130.831 44.9512 131.083 45.0915C131.335 45.2286 131.618 45.2988 131.931 45.2988C132.245 45.2988 132.528 45.2286 132.78 45.0915Z" fill="#F2BF96"/>
<path d="M138.446 41.5585C138.75 41.6922 138.981 41.8794 139.145 42.1267C139.305 42.3741 139.387 42.6649 139.387 43.0058C139.387 43.3401 139.305 43.6309 139.145 43.8816C138.985 44.1289 138.75 44.3194 138.446 44.4531C138.143 44.5868 137.789 44.6504 137.38 44.6504H136.317V45.984H135.441V41.3579H137.38C137.789 41.3613 138.143 41.4281 138.446 41.5585ZM138.208 43.6877C138.405 43.5306 138.504 43.3033 138.504 43.0058C138.504 42.7083 138.405 42.4843 138.208 42.3239C138.01 42.1635 137.721 42.0866 137.339 42.0866H136.317V43.925H137.339C137.721 43.925 138.01 43.8448 138.208 43.6877Z" fill="#F2BF96"/>
<path d="M142.15 41.3608H143.012V44.6466L145.544 41.3608H146.358V45.987H145.496V42.7079L142.965 45.987H142.15V41.3608Z" fill="#F2BF96"/>
<path d="M151.275 44.0353H150.4V45.984H149.537V41.3579H150.4V43.2933H151.303L152.655 41.3579H153.585L151.977 43.5974L153.647 45.984H152.655L151.275 44.0353Z" fill="#F2BF96"/>
<path d="M157.783 45.2654V45.984H154.247V41.3579H157.688V42.0766H155.122V43.2799H157.398V43.9885H155.122V45.2654H157.783Z" fill="#F2BF96"/>
<path d="M161.767 41.5585C162.07 41.6922 162.302 41.8794 162.465 42.1267C162.625 42.3741 162.707 42.6649 162.707 43.0058C162.707 43.3401 162.625 43.6309 162.465 43.8816C162.305 44.1289 162.07 44.3194 161.767 44.4531C161.463 44.5868 161.109 44.6504 160.7 44.6504H159.637V45.984H158.761V41.3579H160.7C161.109 41.3613 161.463 41.4281 161.767 41.5585ZM161.528 43.6877C161.726 43.5306 161.825 43.3033 161.825 43.0058C161.825 42.7083 161.726 42.4843 161.528 42.3239C161.331 42.1635 161.041 42.0866 160.659 42.0866H159.637V43.925H160.659C161.041 43.925 161.331 43.8448 161.528 43.6877Z" fill="#F2BF96"/>
<path d="M166.425 44.9144H164.067L163.603 45.984H162.7L164.823 41.3579H165.685L167.815 45.984H166.898L166.425 44.9144ZM166.135 44.2425L165.246 42.2203L164.363 44.2425H166.135Z" fill="#F2BF96"/>
<path d="M172.865 45.987L172.858 42.9218L171.307 45.4589H170.916L169.365 42.962V45.987H168.537V41.3608H169.26L171.127 44.4193L172.974 41.3608H173.689L173.703 45.987H172.865Z" fill="#F2BF96"/>
<path d="M175.028 41.3608H175.89V44.6466L178.422 41.3608H179.236V45.987H178.374V42.7079L175.843 45.987H175.028V41.3608Z" fill="#F2BF96"/>
<path d="M182.296 44.0353H181.421V45.984H180.559V41.3579H181.421V43.2933H182.324L183.676 41.3579H184.607L182.998 43.5974L184.668 45.984H183.676L182.296 44.0353Z" fill="#F2BF96"/>
<path d="M188.31 44.9144H185.952L185.489 45.984H184.586L186.709 41.3579H187.571L189.701 45.984H188.784L188.31 44.9144ZM188.021 44.2425L187.131 42.2203L186.249 44.2425H188.021Z" fill="#F2BF96"/>
</svg>
