<svg width="60" height="60" viewBox="0 0 60 60" fill="none" xmlns="http://www.w3.org/2000/svg">
<path d="M57.6464 33.2201C57.3298 32.0733 57.0317 30.9892 57.0317 30C57.0317 29.0108 57.3298 27.9267 57.6464 26.7799C58.1502 24.9542 58.67 23.0657 58.0479 21.2302C57.4025 19.3208 55.7938 18.0729 54.238 16.8681C53.3056 16.145 52.4248 15.4625 51.8533 14.7111C51.2719 13.9449 50.8605 12.9224 50.4269 11.8396C49.7112 10.0607 48.9721 8.22029 47.3166 7.06479C45.6882 5.92653 43.6557 5.81689 41.6935 5.71218C40.4691 5.64689 39.3112 5.58406 38.3418 5.28225C37.4352 5.00015 36.4966 4.415 35.5038 3.79537C33.9061 2.79754 32.0942 1.66667 29.9989 1.66667C27.9037 1.66667 26.0917 2.79754 24.4941 3.7966C23.5012 4.41624 22.5651 5.00261 21.6573 5.28348C20.6866 5.58529 19.5287 5.64812 18.3043 5.71341C16.3409 5.81935 14.3109 5.92776 12.6812 7.06602C11.0257 8.22153 10.2866 10.0607 9.57097 11.8396C9.13491 12.9224 8.7235 13.9461 8.1421 14.7123C7.57055 15.4662 6.68982 16.1487 5.75736 16.873C4.20284 18.0791 2.59659 19.3245 1.95113 21.2315C1.32908 23.0682 1.8489 24.9554 2.35146 26.7823C2.66803 27.9292 2.96613 29.012 2.96613 30.0012C2.96613 30.9904 2.66803 32.0745 2.35146 33.2214C1.8489 35.047 1.32908 36.9355 1.95113 38.7735C2.59659 40.6804 4.20407 41.9283 5.75859 43.1331C6.69105 43.855 7.57178 44.5387 8.1421 45.2901C8.72473 46.0564 9.13615 47.0788 9.57097 48.1629C10.2866 49.9417 11.0269 51.7822 12.6837 52.9401C14.3109 54.0759 16.3421 54.1843 18.3043 54.2891C19.5287 54.3544 20.6866 54.4172 21.656 54.719C22.5626 55.0011 23.5 55.5862 24.4916 56.2046C26.0905 57.2012 27.9024 58.3333 29.9989 58.3333C32.0954 58.3333 33.9086 57.2012 35.5087 56.2034C36.5003 55.585 37.4365 54.9999 38.3443 54.7178C39.3137 54.4159 40.4716 54.3531 41.696 54.2878C43.6594 54.1831 45.6894 54.0747 47.3166 52.9389C48.9758 51.7809 49.7149 49.938 50.4306 48.158C50.8654 47.0764 51.2756 46.0539 51.8545 45.2901C52.4261 44.5387 53.3068 43.855 54.2393 43.1331C55.795 41.9271 57.4025 40.6804 58.0492 38.7722C58.6712 36.9343 58.1502 35.047 57.6464 33.2201ZM55.7148 37.9826C55.3071 39.1874 54.0543 40.1581 52.7289 41.1855C51.7127 41.9739 50.6608 42.7894 49.8921 43.7996C49.1124 44.8294 48.6197 46.0539 48.143 47.2402C47.5357 48.753 46.9617 50.1807 45.9061 50.9174C44.8541 51.6516 43.2565 51.7366 41.564 51.8265C40.2423 51.8967 38.8738 51.9694 37.61 52.3636C36.4016 52.7418 35.2831 53.4378 34.2029 54.1129C32.7555 55.0171 31.3895 55.8696 29.9988 55.8696C28.6081 55.8696 27.2433 55.0171 25.7959 54.1129C24.7169 53.4391 23.5996 52.7418 22.39 52.3636C21.1262 51.9707 19.7577 51.8967 18.436 51.8265C16.7435 51.7366 15.1446 51.6504 14.0939 50.9174C13.0395 50.1807 12.4643 48.753 11.857 47.2415C11.3803 46.0551 10.8864 44.8294 10.1054 43.7996C9.33801 42.7894 8.28606 41.9739 7.2686 41.1843C5.94443 40.1569 4.69294 39.1874 4.28522 37.9826C3.90459 36.8604 4.30492 35.4092 4.72743 33.8743C5.07233 32.619 5.42955 31.323 5.42955 29.9988C5.42955 28.6745 5.07233 27.3798 4.72743 26.1245C4.30369 24.5896 3.90459 23.1396 4.28522 22.0174C4.69294 20.8126 5.9432 19.8431 7.26737 18.8157C8.28483 18.0261 9.33801 17.2094 10.1042 16.198C10.8876 15.1681 11.3803 13.9412 11.8582 12.7549C12.4643 11.2433 13.0383 9.81682 14.0915 9.08261C15.1434 8.34718 16.7435 8.26218 18.4372 8.17225C19.7577 8.1008 21.1262 8.02812 22.3888 7.63392C23.5996 7.25696 24.7181 6.55848 25.7996 5.88341C27.2445 4.9829 28.6093 4.13044 29.9988 4.13044C31.3882 4.13044 32.7543 4.9829 34.2004 5.88587C35.2819 6.56218 36.3991 7.25943 37.61 7.63638C38.8726 8.02935 40.2398 8.10203 41.5616 8.17348C43.2553 8.26341 44.8541 8.35087 45.9061 9.08508C46.9605 9.82174 47.5345 11.2483 48.1405 12.7573C48.6185 13.9449 49.1099 15.1706 49.8934 16.2004C50.6608 17.2106 51.7127 18.0261 52.7289 18.8145C54.0543 19.8431 55.3071 20.8138 55.7148 22.0211C56.0954 23.1409 55.6938 24.5908 55.2713 26.1257C54.9252 27.381 54.568 28.677 54.568 30.0012C54.568 31.3255 54.924 32.6215 55.2713 33.8755C55.6952 35.4104 56.0954 36.8604 55.7148 37.9826Z" fill="#1F1F1F"/>
<path d="M29.9993 11.5211C19.8112 11.5211 11.5225 19.8105 11.5225 29.9994C11.5225 40.1883 19.8112 48.4777 29.9993 48.4777C40.1875 48.4777 48.4762 40.1883 48.4762 29.9994C48.4762 19.8105 40.1875 11.5211 29.9993 11.5211ZM29.9993 46.0139C21.1699 46.0139 13.9861 38.8296 13.9861 29.9994C13.9861 21.1693 21.1699 13.9849 29.9993 13.9849C34.5533 13.9849 38.6588 15.9054 41.5781 18.9679L29.8392 35.4887L23.4795 29.1285C22.9979 28.6468 22.2194 28.6468 21.7378 29.1285C21.2561 29.6101 21.2561 30.3887 21.7378 30.8704L29.1285 38.2617C29.36 38.4945 29.6742 38.6226 29.9993 38.6226C30.0326 38.6226 30.0683 38.6214 30.1028 38.6177C30.4637 38.5881 30.7938 38.3996 31.0033 38.104L43.1943 20.9463C44.968 23.5234 46.0126 26.6401 46.0126 29.9994C46.0126 38.8296 38.8288 46.0139 29.9993 46.0139Z" fill="#1F1F1F"/>
</svg>
