<svg width="185" height="180" viewBox="0 0 185 180" fill="none" xmlns="http://www.w3.org/2000/svg">
<path d="M49.89 170.15C48.28 168.34 47.82 166.49 49.17 164.33C47.65 162.96 46.01 161.84 44.7 160.35C42.78 158.17 42.01 155.67 42.42 152.81C42.91 149.38 45.83 146.75 49.28 146.59C51.94 146.47 54.61 147.53 56.92 149.65C52.26 149.96 50.9 153.57 51.85 156.42C53.11 160.16 58.25 162.81 62.25 161.77C61.48 161.03 61.4 159 61.48 158.26C61.66 156.67 62.27 155.17 63.33 154.57C64.25 161.03 69.12 162.79 73.17 162.45C78.81 161.97 80.85 161.03 84.54 155.5C85.66 153.82 85.46 151.81 84.7 150.42C80.32 151.12 80.25 151.1 77.94 149.26C82.12 148.09 83.51 145.13 83.36 141.15C83.23 137.66 82.12 136.04 78.79 134.75C79.32 135.47 79.39 136.37 78.99 137.04C78.47 137.91 77.42 137.95 77.14 137.96C76.35 137.99 75.22 137.67 74.79 136.72C74.21 135.46 75.37 134.14 75.5 133.99C76.07 133.3 76.99 132.89 78.25 132.78C80.43 132.58 82.56 133.52 84.1 135.08C87.41 138.42 88.66 142.67 89.22 147.14C89.61 150.27 89.08 153.42 88.18 156.42C85.86 164.17 80.04 167.7 72.5 168.98C68.36 169.69 64.22 169.7 60.02 169.17C56.67 168.76 53.17 168.38 49.89 170.15Z" fill="#F2BF96"/>
<path d="M56.76 118.75C56.84 118.65 57 118.65 57.09 118.74C58.48 120.1 58.91 121.81 59.08 123.44C59.49 127.51 61.84 130.07 65.12 132.03C67.64 133.54 70.07 135.14 71.96 137.45C74.9 141.03 75.39 146.8 73.01 150.35C71.71 152.29 69.95 153.43 67.53 153.43C64.69 153.42 62.33 151.43 62.61 148.91C63.28 142.89 68.35 143.45 70.63 144.55C70.78 144.62 70.95 144.52 70.95 144.35C70.94 142.16 69.78 140.74 68.41 140.36C65.8 139.64 64.07 140.2 61.98 143.06C61.94 143.12 61.86 143.16 61.79 143.16C60.55 143.15 59.95 142.4 60 141.23C60.11 138.73 64.02 137.41 64.02 137.41C64.02 137.41 59.63 136.4 58.16 138.54C57.44 139.59 56.66 140.36 55.83 140.89C51.67 143.53 47.49 137.29 51.41 134.31C52.32 133.62 53.5 132.9 54.98 132.1C55.11 132.03 55.15 131.86 55.05 131.75C54.01 130.64 52.47 129.88 52.41 128.12C52.38 127.22 52.49 126.38 52.82 125.59C53.17 124.77 53.97 124.24 54.84 124.12C54.94 124.11 55.02 124.02 55.03 123.92C55.2 122.07 55.45 120.27 56.76 118.75Z" fill="#F2BF96"/>
<path d="M38.42 141.99C38.59 141.26 38.64 140.74 38.84 140.28C39.57 138.58 41.09 137.93 42.62 138.62C44.11 139.3 44.56 140.92 43.71 142.62C42.79 144.49 40.17 145.77 37.89 145.44C34.44 144.94 31.86 142.73 30.14 138.43C27.99 133.05 29.74 126.8 34.33 123.26C37.36 120.93 40.82 119.56 44.6 119.04C46.85 118.73 48.52 119.06 49.76 120.08C51.13 121.2 51.5 123.22 50.67 124.78C50.31 125.47 49.86 125.83 49.17 125.98C47.58 126.33 46.03 125.15 45.78 123.54C45.74 123.27 45.7 122.93 45.65 122.51C43.34 121.34 40.26 122.29 39.4 123.42C41.19 124.14 41.19 125.98 40.65 126.93C39.9 128.26 37.2 127.74 36.39 129.7C36.57 129.67 38.41 129.67 38.04 131.66C35.7 132.42 33.74 133.7 33.77 136.5C33.8 139.01 35.45 140.96 38.42 141.99Z" fill="#F2BF96"/>
<path d="M92.6101 12.2L92.5601 12.15C92.5701 12.14 92.5901 12.13 92.6001 12.12C92.5901 12.14 92.6001 12.18 92.6101 12.2Z" fill="#F2BF96"/>
<path d="M88.3999 167.03C86.0899 173.87 86.6599 174.28 89.6799 175.41C89.5899 175.65 89.1699 176.67 88.0899 177.15C86.8899 177.69 85.7599 177.17 85.3499 176.99C83.9799 176.37 83.4099 175.14 83.2699 174.8C83.0399 175.27 82.5899 176.04 81.7799 176.72C81.2399 177.17 80.2699 177.97 78.8699 177.94C77.3499 177.91 76.3499 176.91 76.1099 176.65C70.5599 178.95 65.8099 176.86 61.1499 173.96C70.9299 174.49 80.6199 174.85 88.3999 167.03Z" fill="#F2BF96"/>
<path d="M15.5901 133.41C17.5201 138.12 20.4801 140.76 24.3001 142.57C27.4101 144.04 30.7201 145.09 33.5801 147.08C34.7801 147.92 35.9901 148.73 36.8801 149.93C37.5601 150.85 37.9701 151.77 37.9701 152.72C37.9701 154.41 36.1801 155.6 34.5901 155.02C34.5801 155.02 34.5701 155.01 34.5601 155.01C32.7501 153.89 33.2801 152.42 34.0501 151.03C32.5101 149.28 30.4601 149.01 28.6001 148.44C25.9901 147.63 23.4001 146.81 21.1801 145.2C17.4401 142.49 14.9401 139.09 15.5901 133.41Z" fill="#F2BF96"/>
<path d="M30.0999 154.25C30.8499 155.11 31.47 156.09 32.28 156.89C34.71 159.27 36.0699 159.47 39.2699 158.06C40.1399 158.37 39.33 161.04 39.33 161.04C39.33 161.04 41.9099 161.13 42.0399 162.15C40.7999 163.7 38.41 163.81 36.56 162.89C35.22 162.22 26.31 155.71 24.2 151.5C24.2 151.49 28.5299 152.46 30.0999 154.25Z" fill="#F2BF96"/>
<path d="M25.9001 131.12C26.1101 134.46 26.4901 137.54 28.2401 140.62C25.7001 140 23.7401 139.02 21.8601 137.47C22.6401 136.36 23.5401 135.45 23.4301 133.91C23.3501 132.63 24.4401 131.75 25.9001 131.12Z" fill="#F2BF96"/>
<path d="M0 94.26C0.91 92.01 2.36001 90.78 4.89001 91.03C5.44001 89.06 5.71001 87.1 6.46001 85.26C7.56001 82.57 9.46 80.77 12.2 79.86C15.49 78.77 19.14 80.2101 20.82 83.2301C22.11 85.5601 22.35 88.43 21.47 91.43C19.12 87.4 15.28 87.78 13.15 89.91C10.36 92.7 10.28 98.48 12.99 101.61C13.31 100.59 15.09 99.61 15.79 99.36C17.29 98.82 18.91 98.7 19.92 99.37C14.55 103.07 15.13 108.21 17.25 111.69C20.19 116.53 21.94 117.94 28.54 118.78C30.55 119.04 32.26 117.96 33.17 116.67C30.6 113.06 30.58 112.99 31.2 110.1C34.1 113.32 37.38 113.25 40.87 111.35C43.94 109.68 44.89 107.97 44.57 104.42C44.16 105.21 43.39 105.68 42.61 105.62C41.6 105.54 41.09 104.62 40.96 104.38C40.58 103.69 40.37 102.53 41.02 101.73C41.9 100.65 43.59 101.11 43.78 101.15C44.65 101.36 45.43 101.99 46.09 103.07C47.24 104.94 47.34 107.26 46.63 109.33C45.11 113.78 41.87 116.79 38.11 119.28C35.48 121.03 32.42 121.95 29.33 122.48C21.35 123.86 15.61 120.2 11.1 114.03C8.62 110.64 6.77 106.94 5.38 102.94C4.26 99.71 3.04 96.42 0 94.26Z" fill="#F2BF96"/>
<path d="M49.08 77.55C49.2 77.58 49.2799 77.72 49.2399 77.84C48.6399 79.69 47.2999 80.84 45.9099 81.71C42.4499 83.89 41.2099 87.13 40.9099 90.94C40.6799 93.87 40.3199 96.76 39.0999 99.47C37.1999 103.7 32.2599 106.7 28.0199 106.15C25.6999 105.85 23.9 104.78 22.83 102.61C21.57 100.07 22.3 97.06 24.69 96.19C30.38 94.11 32.1399 98.9 32.1599 101.44C32.1599 101.6 32.3299 101.71 32.4799 101.64C34.4399 100.66 35.1899 98.98 34.9199 97.59C34.3999 94.93 33.1299 93.63 29.6399 93.03C29.5699 93.02 29.5 92.97 29.47 92.9C28.93 91.79 29.3299 90.92 30.3999 90.44C32.6799 89.43 35.6099 92.34 35.6099 92.34C35.6099 92.34 34.5599 87.96 31.9899 87.59C30.7299 87.41 29.6999 87.06 28.8499 86.55C24.6299 84 28.3699 77.48 32.7799 79.66C33.8099 80.17 34.9799 80.9 36.3399 81.87C36.4599 81.95 36.6299 81.91 36.6799 81.78C37.2099 80.35 37.2099 78.64 38.7599 77.8C39.5499 77.37 40.3499 77.1 41.2099 77.04C42.0999 76.99 42.9299 77.46 43.4299 78.2C43.4899 78.28 43.59 78.32 43.69 78.28C45.42 77.62 47.14 77.04 49.08 77.55Z" fill="#F2BF96"/>
<path d="M20.1101 71.46C20.8401 71.29 21.3301 71.1 21.8301 71.07C23.6801 70.97 24.9401 72.04 25.0001 73.71C25.0501 75.35 23.8001 76.47 21.9001 76.47C19.8201 76.48 17.5001 74.71 16.7801 72.51C15.6901 69.2 16.5201 65.91 19.6101 62.45C23.4701 58.13 29.8401 56.91 35.0601 59.45C38.5001 61.12 41.2601 63.62 43.4101 66.77C44.6901 68.64 45.1301 70.29 44.7801 71.85C44.3901 73.58 42.7401 74.8 40.9801 74.75C40.2001 74.73 39.6801 74.49 39.2401 73.94C38.2201 72.67 38.5801 70.76 39.9101 69.82C40.1401 69.66 40.4201 69.48 40.7701 69.24C40.7901 66.65 38.5701 64.32 37.1701 64.05C37.3201 65.97 35.6701 66.79 34.5901 66.74C33.0601 66.67 32.3301 64.01 30.2201 64.16C30.3201 64.3 31.1401 65.96 29.2001 66.51C27.4801 64.75 25.4601 63.57 22.9701 64.84C20.7201 65.99 19.7201 68.34 20.1101 71.46Z" fill="#F2BF96"/>
<path d="M19.9299 127.36C12.7699 128.33 12.6599 129.02 12.9899 132.23C12.7399 132.26 11.6399 132.34 10.7199 131.58C9.7099 130.74 9.65989 129.5 9.64989 129.05C9.59989 127.54 10.4499 126.49 10.6899 126.21C10.1699 126.21 9.2799 126.15 8.3099 125.72C7.6699 125.44 6.5199 124.93 5.9199 123.66C5.2799 122.29 5.7199 120.94 5.8399 120.61C1.3099 116.67 1.0699 111.48 1.5899 106.01C5.4799 115.04 9.45989 123.88 19.9299 127.36Z" fill="#F2BF96"/>
<path d="M17.63 47.2C14.27 51.03 13.23 54.85 13.3 59.07C13.36 62.51 13.9 65.94 13.39 69.39C13.18 70.84 12.98 72.28 12.31 73.61C11.79 74.63 11.14 75.4 10.3 75.83C8.79 76.58 6.92999 75.51 6.73999 73.83C6.73999 73.82 6.73999 73.81 6.73999 73.8C6.93999 71.69 8.48998 71.5 10.07 71.57C10.95 69.41 10.28 67.45 9.96999 65.54C9.52999 62.85 9.11998 60.16 9.56998 57.45C10.33 52.89 12.26 49.15 17.63 47.2Z" fill="#F2BF96"/>
<path d="M5.43007 69.46C5.00007 70.52 4.39007 71.51 4.04007 72.59C2.99007 75.83 3.41007 77.13 6.10007 79.37C6.21007 80.28 3.46008 80.75 3.46008 80.75C3.46008 80.75 4.52007 83.1 3.67007 83.67C1.73007 83.24 0.570068 81.15 0.570068 79.09C0.570068 77.59 2.44007 66.72 5.27007 62.95C5.28007 62.95 6.33007 67.26 5.43007 69.46Z" fill="#F2BF96"/>
<path d="M24.27 55.42C21.37 57.09 18.78 58.8 16.8 61.75C16.23 59.2 16.24 57.01 16.79 54.63C18.13 54.84 19.35 55.23 20.68 54.46C21.79 53.8 23.06 54.38 24.27 55.42Z" fill="#F2BF96"/>
<path d="M42.28 13.2C44.68 12.85 46.48 13.49 47.54 15.8C49.51 15.28 51.35 14.53 53.32 14.25C56.2 13.85 58.71 14.57 60.87 16.49C63.47 18.79 64.06 22.66 62.3 25.63C60.94 27.92 58.58 29.57 55.55 30.33C57.85 26.27 55.58 23.14 52.68 22.38C48.86 21.38 43.83 24.22 42.49 28.13C43.53 27.89 45.27 28.94 45.84 29.42C47.07 30.45 47.99 31.78 47.91 32.99C42.01 30.21 37.86 33.31 35.92 36.89C33.22 41.86 32.88 44.09 35.48 50.22C36.27 52.08 38.06 53.02 39.64 53.15C41.46 49.11 41.51 49.06 44.32 48.14C43 52.27 44.71 55.06 48.11 57.12C51.1 58.93 53.06 58.89 55.96 56.82C55.07 56.87 54.27 56.43 53.93 55.73C53.49 54.82 54.03 53.91 54.17 53.68C54.58 53 55.47 52.24 56.49 52.4C57.86 52.61 58.32 54.3 58.38 54.5C58.64 55.36 58.48 56.35 57.89 57.46C56.86 59.4 54.91 60.65 52.76 61.08C48.15 62.01 43.92 60.72 39.87 58.73C37.04 57.34 34.7 55.16 32.68 52.76C27.47 46.56 27.73 39.76 30.8 32.76C32.48 28.91 34.75 25.45 37.49 22.23C39.71 19.63 41.95 16.92 42.28 13.2Z" fill="#F2BF96"/>
<path d="M81.4399 47.18C81.4699 47.3 81.3899 47.44 81.2699 47.47C79.3699 47.89 77.6999 47.3 76.2499 46.55C72.6199 44.66 69.1999 45.22 65.7499 46.88C63.1099 48.16 60.4299 49.3 57.4699 49.62C52.8599 50.11 47.7799 47.35 46.1199 43.41C45.2099 41.25 45.2299 39.16 46.5599 37.14C48.1199 34.77 51.0899 33.89 53.0399 35.52C57.6999 39.39 54.4499 43.31 52.2699 44.62C52.1299 44.7 52.1199 44.9 52.2599 44.99C54.0899 46.19 55.9199 45.99 56.9899 45.06C59.0299 43.27 59.5099 41.52 58.2699 38.21C58.2399 38.14 58.2499 38.06 58.2899 38C58.9799 36.97 59.9299 36.88 60.8799 37.57C62.9099 39.03 61.8599 43.03 61.8599 43.03C61.8599 43.03 65.1099 39.92 64.1299 37.51C63.6499 36.33 63.4299 35.26 63.4499 34.28C63.5299 29.36 71.0499 29.29 71.3799 34.21C71.4599 35.35 71.4099 36.73 71.2599 38.4C71.2499 38.54 71.3699 38.67 71.5099 38.65C73.0099 38.39 74.4899 37.53 75.9899 38.44C76.7599 38.91 77.3999 39.46 77.8699 40.17C78.3599 40.91 78.3699 41.87 77.9899 42.67C77.9499 42.76 77.9699 42.87 78.0499 42.93C79.5299 44.06 80.8999 45.25 81.4399 47.18Z" fill="#F2BF96"/>
<path d="M72.1098 19.09C72.6198 19.63 73.0298 19.96 73.3098 20.38C74.3298 21.93 74.0398 23.56 72.6198 24.45C71.2298 25.32 69.6398 24.8 68.6698 23.16C67.6198 21.36 67.9798 18.47 69.5098 16.74C71.8198 14.13 75.0898 13.19 79.6198 14.12C85.2998 15.28 89.5598 20.17 89.9898 25.96C90.2698 29.77 89.5098 33.42 87.8698 36.86C86.8998 38.91 85.6998 40.12 84.1698 40.6C82.4798 41.13 80.5998 40.33 79.7398 38.78C79.3698 38.1 79.3098 37.52 79.5698 36.87C80.1498 35.35 81.9898 34.7 83.4698 35.38C83.7198 35.5 84.0198 35.64 84.4098 35.83C86.6598 34.54 87.5498 31.45 87.0798 30.11C85.4998 31.21 83.9598 30.19 83.4598 29.23C82.7598 27.87 84.6798 25.91 83.4898 24.15C83.4198 24.31 82.3998 25.85 80.9498 24.45C81.5998 22.07 81.6098 19.74 79.2498 18.22C77.1398 16.86 74.5998 17.18 72.1098 19.09Z" fill="#F2BF96"/>
<path d="M23.7199 47.09C19.2799 41.4 18.6199 41.65 16.0199 43.55C15.8699 43.34 15.2499 42.44 15.4399 41.26C15.6499 39.96 16.6999 39.3 17.0799 39.06C18.3499 38.25 19.6899 38.46 20.0499 38.53C19.7799 38.08 19.3899 37.28 19.2699 36.23C19.1899 35.54 19.0499 34.28 19.8499 33.13C20.7099 31.88 22.0999 31.59 22.4499 31.53C23.5799 25.63 27.9399 22.81 32.9199 20.51C27.0899 28.4 21.4599 36.29 23.7199 47.09Z" fill="#F2BF96"/>
<path d="M91.8098 4.73C86.8098 3.76 82.9798 4.77999 79.3698 6.96999C76.4298 8.75999 73.7398 10.95 70.4998 12.25C69.1398 12.8 67.7998 13.35 66.3098 13.44C65.1698 13.5 64.1698 13.34 63.3798 12.82C61.9698 11.89 61.9598 9.75 63.3098 8.73C63.3198 8.72 63.3298 8.72001 63.3298 8.71001C65.2598 7.82001 66.1998 9.05999 66.9298 10.47C69.2398 10.15 70.5898 8.58001 72.0898 7.34001C74.1998 5.60001 76.3098 3.89 78.8798 2.92C83.2198 1.28 87.4298 1.07 91.8098 4.73Z" fill="#F2BF96"/>
<path d="M66.43 5.40002C65.3 5.56002 64.14 5.53999 63.03 5.77999C59.7 6.49999 58.8 7.53 58.21 10.98C57.48 11.54 55.68 9.39001 55.68 9.39001C55.68 9.39001 54.18 11.49 53.26 11.05C52.65 9.16001 53.87 7.1 55.66 6.07C56.96 5.32 67.29 1.44999 71.97 1.99999C71.98 1.98999 68.79 5.07002 66.43 5.40002Z" fill="#F2BF96"/>
<path d="M88.0598 14.6C85.1598 12.94 82.3698 11.56 78.8298 11.33C80.7398 9.55002 82.6398 8.45001 84.9698 7.73001C85.4698 8.99001 85.7398 10.24 87.0798 11C88.2098 11.65 88.3398 13.03 88.0598 14.6Z" fill="#F2BF96"/>
<path d="M24.1201 49.24C24.2101 49.26 24.3801 49.29 24.3801 49.31C24.3701 49.51 24.2901 49.47 24.1701 49.19L24.1201 49.24Z" fill="#F2BF96"/>
<path d="M180.48 105.68C182.83 102.6 184.48 99.16 184.5 95.25C184.51 92.74 184.31 90.11 183.56 87.74C181.9 82.49 180.36 77.33 182.33 71.63C178.64 74.25 177.51 77.94 178.29 84.43C176.8 84.26 175.38 84.38 174.58 86.06C177.94 87.96 180.9 90.19 181.32 94.3C181.72 98.17 180.34 101.57 178.35 104.65C176.8 103.81 175.45 103.07 174 102.27C174.08 101.92 174.21 101.48 174.27 101.03C174.84 97.1 173.73 93.71 170.77 91.06C169.22 89.67 167.46 90.11 166.79 92.08C166.07 94.18 164.89 95.88 163.02 97.19C160.95 98.62 159.04 100.26 157.14 101.9C155.25 103.53 154.02 103.89 152.51 103.03C149.95 101.58 148.8 98.52 150.39 96.29C151.43 94.84 153.33 94.32 155.04 94.81C156.02 95.09 156.97 95.49 157.94 95.82C157.67 93.16 156.61 91.85 154.19 91.15C155.05 89.49 154.97 88.33 153.94 87.5C152.98 86.73 151.5 86.88 150.2 87.87C148.88 88.89 148.77 90.14 150.01 91.81C150.57 92.58 150.97 93.42 150.06 93.9C149.59 94.15 148.4 93.75 148 93.27C146.47 91.4 145.67 89.06 145.97 86.73C146.68 81.38 150.05 77.48 153.64 73.7C154.04 74.04 154.31 74.2 154.51 74.44C156.37 76.67 157.68 79.17 158.02 82.1C158.41 85.41 160.83 87.68 164.02 87.7C167.16 87.72 169.59 85.56 170.08 82.34C170.12 82.05 170.21 81.77 170.29 81.45C172.99 81.48 175.02 80.41 176.25 78.08C177.48 75.75 177.06 73.47 175.69 71.33C179.96 69.15 181.58 65.96 180.46 62.09C179.13 57.49 176.35 55.82 170.85 56.35C170.68 53.81 169.64 51.74 167.27 50.59C164.84 49.41 162.54 49.87 160.37 51.46C159.96 51.01 159.64 50.59 159.25 50.26C157.02 48.37 153.75 48.36 151.5 50.22C149.3 52.03 148.81 55.1 149.96 57.72C150.82 59.68 151.4 61.8 151.86 63.9C152.1 64.99 151.82 66.19 151.76 67.46C147.29 66.71 143.32 65.61 139.79 63.25C137.19 61.51 135.92 58.96 135.52 55.96C135.37 54.87 135.18 53.35 136.72 53.19C138.26 53.04 137.9 54.49 138 55.48C138.14 56.84 138.7 57.87 140.25 58C141.87 58.14 143.37 57.4 143.7 56.18C144.11 54.65 143.34 53.71 141.99 53.13C141.92 53.1 141.89 52.97 141.83 52.87C143.63 51.01 143.05 49.04 142.18 46.93C141.44 47.94 140.83 48.94 140.11 49.81C138.89 51.27 136.8 51.8 135.12 50.9C132.98 49.75 132.3 46.88 133.43 44.39C134.13 42.86 135.37 42.35 137.66 42.59C139.46 42.78 141.28 43.18 143.07 43.05C146.28 42.83 149.25 43.05 151.92 45.14C153.11 46.07 154.33 45.61 154.95 44.2C155.24 43.55 155.41 42.81 155.46 42.1C155.74 38.09 154.31 34.78 151.25 32.35C151.99 30.83 152.7 29.36 153.43 27.86C156.87 29.33 159.99 31.18 161.89 34.49C163.97 38.1 162.83 41.68 161.3 45.18C162.97 46.02 164.13 45.3 165.22 44.34C168.89 50.27 172.02 52.61 175.71 52.2C171.1 47.64 169.72 45.67 168.41 40.91C166.32 33.28 161.92 27.92 154.14 25.63C153.71 25.5 153.31 25.05 153.23 24.61C152.68 21.67 151.28 19.17 149.43 16.88C149.06 16.41 148.56 15.94 148.02 15.72C145.3 14.59 142.47 13.93 139.51 14.34C138.55 14.47 138.03 14.2 137.49 13.41C134.56 9.18 130.65 6.27 125.52 5.41C123.03 4.99 120.46 5.03001 117.92 4.98001C113.67 4.88001 109.68 4.01 106.16 1.5C106.07 1.44 105.93 1.47002 105.66 1.43002C107.76 6.26002 111.5 8.43002 116.67 8.90002C116 10.45 115.75 11.81 117.03 13.01C124.12 6.06001 131.04 9.08001 135.49 14.85C134.39 16.11 133.35 17.3 132.24 18.57C132.13 18.5 131.88 18.33 131.61 18.18C128.17 16.27 124.65 16.21 121.16 17.9C118.8 19.04 118.32 20.83 120.67 22.64C122.03 23.69 123.07 25.35 123.82 26.94C125.03 29.5 125.96 32.2 126.85 34.9C127.19 35.93 127.5 37.26 127.13 38.18C126.54 39.67 125.22 40.41 123.71 40.7C121.9 41.05 119.97 40.37 118.96 38.83C117.88 37.18 118.37 35.67 119.35 34.26C119.92 33.44 120.59 32.69 121.32 31.78C118.88 31.59 116.8 31.66 115.67 34.06C114.24 32.65 113.05 32.37 111.97 33.17C110.98 33.9 110.71 35.62 111.35 37.04C111.97 38.42 113.09 38.81 115.07 38.15C115.95 37.86 116.77 37.87 116.96 38.77C117.06 39.25 116.4 39.92 116.02 40.45C115.89 40.63 115.56 40.69 115.32 40.75C113.04 41.28 110.73 41.35 108.61 40.29C103.86 37.91 101.33 33.59 98.8899 29.19C101.07 27.63 105.46 26.9 108.2 27.53C111.23 28.23 114.18 26.71 115.29 23.87C116.48 20.8 115.1 17.45 111.94 16.05C111.78 15.74 111.69 15.54 111.53 15.23C112.13 12.84 111.73 10.74 109.98 8.96002C108.14 7.07002 105.85 6.84 103.42 7.38C102.61 2.70001 100.09 0.18001 96.1899 0.0100098C96.0199 9.76585e-06 95.8399 0 95.6699 0V4.97C95.6699 6.78 96.5099 8.43 97.8099 9.69C99.2299 11.06 99.9799 13.71 99.5299 16.39C104.74 15.99 107.57 17.8 108.31 22.05C106.62 22.13 104.93 22.18 103.25 22.31C101.47 22.44 99.9499 23.13 98.8599 24.62C97.9999 25.8 97.0999 26.94 95.9099 28.02C95.8299 27.93 95.7499 27.83 95.6699 27.74V34.05C96.1299 34.08 96.5999 34.28 97.0399 34.66C97.5399 35.09 98.0299 35.61 98.3399 36.19C102.17 43.38 108.42 46.47 116.28 46.37C120.13 46.32 123.97 45.55 127.73 45.11C128.09 47.59 128.2 50.52 128.98 53.26C129.84 56.27 131.06 59.25 132.6 61.97C135.14 66.48 139.35 68.87 144.34 69.97C144.39 69.98 144.44 69.99 144.49 70C145.9 70.25 147.37 70.56 147.88 72.09C148.38 73.62 147.35 74.73 146.39 75.79C142.98 79.57 141 83.94 141.36 89.1C141.76 94.81 143.74 100.01 146.97 104.74C147.23 105.12 147.47 105.52 147.72 105.91C147.74 105.95 147.72 106.01 147.72 106.14C143.18 107.67 138.99 109.87 135.38 113.11C130.35 117.63 128.01 123.16 128.9 129.95C128.93 130.16 128.94 130.36 128.95 130.57C129.06 133.61 127.42 134.72 124.55 133.62C122.81 132.96 121.07 132.25 119.26 131.84C114.78 130.82 110.61 131.91 106.67 134.06C102.73 136.21 99.4799 139.15 96.6999 142.64C96.3599 143.07 96.0199 143.5 95.6799 143.93V151.46C98.2299 151.49 100.29 152.83 101.17 155.38C102.11 158.14 103.93 159.94 106.49 161.13C106.67 161.21 106.82 161.35 106.99 161.45C105.36 163.84 103.83 164.27 100.62 163.43C99.9599 165.42 99.7199 167.68 98.5699 169.3L98.5299 169.36C96.6699 171.97 95.6799 175.09 95.6799 178.3V179.38C95.8599 179.37 96.0299 179.35 96.1999 179.31C99.1599 178.58 101.89 177.4 104.19 175.3C104.57 174.96 105.35 174.85 105.9 174.94C107.74 175.25 109.53 175.88 111.37 176.06C116.86 176.6 121.53 174.54 125.75 171.21C129.47 168.27 133.58 166.33 138.4 166.16C138.5 166.16 138.6 166.04 138.83 165.89C134.24 163.23 129.91 163.83 125.64 166.35C125.26 164.73 124.7 163.47 122.92 163.3C121.42 172.17 115.25 174.85 106.81 172.58C107.09 169.83 107.02 170.51 107.3 167.77C111.67 167.41 114.98 165.37 116.89 161.38C117.99 159.09 117.04 157.95 114.55 157.64C112.83 157.43 111.14 157 109.6 156.19C106.96 154.8 104.5 153.04 102.06 151.3C101.22 150.7 100.26 149.84 100.01 148.92C99.5699 147.33 100.22 145.93 101.29 144.79C102.47 143.53 104.76 142.92 106.35 143.59C108.11 144.33 108.54 145.86 108.59 147.55C108.61 148.51 108.48 149.47 108.4 150.67C110.48 149.42 112.02 148.09 111.79 145.62C112 145.58 112.1 145.54 112.19 145.55C113.58 145.73 114.69 145.34 115.19 143.93C115.61 142.75 114.64 141.06 113.24 140.39C111.93 139.76 110.94 140.31 110.09 141.3C109.85 141.57 109.73 142.02 109.44 142.15C108.98 142.36 108.36 142.57 107.95 142.41C107.64 142.29 107.42 141.58 107.42 141.14C107.42 140.72 107.69 140.24 107.98 139.89C109.63 137.93 111.62 136.44 114.24 136.14C119.2 135.56 123.63 137.28 127.92 139.5C127.99 139.54 128.01 139.68 128.11 139.92C126.62 142.72 124.45 144.94 121.49 146.31C118.6 147.65 117.14 150.67 118.03 153.64C118.92 156.6 121.85 158.37 124.97 157.84C125.27 157.79 125.56 157.75 125.84 157.71C127.79 163.06 133.66 164.07 137.25 159.85C141.35 163.37 144.46 163.7 148.09 161.03C149.57 159.95 150.6 158.57 151.08 156.79C151.69 154.55 151.11 152.52 149.9 150.54C152.39 149.57 154.01 147.92 154.38 145.31C154.77 142.63 153.51 140.62 151.5 139.06C153.35 135.43 152.82 132.28 150.09 130.38C147.33 128.45 144.54 129.24 141.49 131.89C139.6 133.53 137.03 134.41 134.72 135.52C133.89 135.92 133.35 135.45 133.32 134.48C133.25 132.04 133.03 129.6 133.12 127.17C133.22 124.67 133.72 122.18 135.29 120.12C136.7 118.27 138.5 116.82 140.86 116.41C141.36 116.32 142 116.97 142.57 117.28C142.21 117.76 141.92 118.31 141.48 118.7C141.15 118.99 140.62 119.04 140.21 119.26C139.06 119.89 138.62 120.85 139.01 122.14C139.47 123.66 140.62 124.73 141.82 124.64C143.15 124.55 143.84 123.72 144.11 122.47C144.15 122.28 144.19 122.08 144.23 121.88C146.58 122.66 148.06 122.25 150.02 120.28C148.9 119.95 147.8 119.7 146.74 119.31C145.36 118.8 144.33 117.92 144.1 116.33C143.74 113.92 145.32 111.86 147.95 111.33C150.65 110.79 152.11 111.72 152.76 114.4C153.25 116.41 153.46 118.52 154.21 120.43C155.32 123.24 155.85 125.94 154.83 128.9C154.28 130.49 155.1 131.51 156.79 131.69C157.3 131.74 157.83 131.71 158.34 131.6C162.48 130.74 165.28 128.28 166.79 124.48C168.44 124.71 170.01 124.93 171.66 125.16C171.44 128.82 170.58 132.27 168.15 135.11C165.36 138.37 161.52 138.33 157.69 138.01C157.31 139.9 158.57 140.72 159.75 141.59C155.91 144.93 154.14 148.88 155.4 153.92C157.07 149.35 160.12 145.92 164.11 143.31C170.63 139.04 174.21 133.22 174.06 125.29C174.05 124.79 174.37 124.17 174.8 123.93C177.43 122.48 179.36 120.35 180.96 117.88C181.23 117.46 181.52 116.96 181.56 116.48C181.78 113.44 181.63 110.43 180.21 107.66C179.77 106.85 179.97 106.35 180.48 105.68ZM156.43 59.78C156.07 58.6 155.69 57.42 155.31 56.24C159.76 55.69 162.39 57.84 163.46 62.93C163.78 62.75 164.08 62.6 164.36 62.43C166.74 60.99 170.3 61.64 171.94 63.87C172.16 64.18 172.19 64.75 172.1 65.15C171.38 68.47 169.62 69.97 166.22 70.25C166.14 70.26 166.06 70.34 165.98 70.39C167.85 75.55 167.25 77.9 163.25 80.67C162.86 79.49 162.5 78.33 162.1 77.19C161.28 74.86 159.91 73.19 157.54 72.04C153.18 69.93 153.41 70.78 155.74 66.46C156.97 64.21 157.14 62.11 156.43 59.78ZM132.39 38.78C130.27 37.33 129.28 35.24 129.92 32.85C130.79 29.64 130.58 26.72 128.82 23.91C131.52 22.8 133.26 23.46 135.46 26.39C135.81 25.93 136.14 25.49 136.48 25.07C138.27 22.88 140.63 21.89 143.42 21.74C144.34 21.69 144.69 22.05 144.9 22.91C145.69 26.16 145.15 29.09 142.82 31.77C145.65 32.56 147.52 34.05 147.35 37.35C144.08 36.59 141.27 37.18 138.55 39.03C136.62 40.34 134.41 40.16 132.39 38.78ZM135.64 139.34C138.23 139.77 140.33 139.28 142.37 137.87C143.35 137.19 144.29 136.47 145.34 135.71C147.07 140.17 146 142.86 141.41 145.67C144.35 147.61 144.6 150.26 143.51 153.29C143.2 154.13 142.72 154.5 141.8 154.55C138.48 154.74 136.62 153.59 135.11 150.2C133.5 151.82 131.73 153.3 129.35 152.93C127.68 152.67 126.1 151.87 124.14 151.19C125.81 149.91 127.05 149 128.24 148.03C129.83 146.73 130.57 145.08 130.9 142.97C131.7 137.76 130.88 138.53 135.64 139.34ZM173.53 115.74C170.73 117.35 167.88 117.64 164.74 116.34C164.83 119.32 163.92 121.54 160.8 122.4C160.54 119.15 159.21 116.65 156.64 114.66C154.71 113.16 154.08 110.96 154.85 108.49C155.64 105.98 157.39 104.46 159.92 104.34C163.13 104.2 165.76 103.11 167.86 100.51C169.71 102.96 169.63 104.44 167.58 107.73C170.76 108.51 172.98 110.4 174.29 113.39C174.79 114.5 174.61 115.12 173.53 115.74Z" fill="#F2BF96"/>
<path d="M72.91 109.95V67.38C72.91 65.05 72.21 62.64 71.05 61.48H84.1C82.93 62.65 82.16 65.05 82.16 67.38V109.95C82.16 112.28 82.94 114.69 84.1 115.85H71.05C72.21 114.69 72.91 112.28 72.91 109.95Z" fill="#F2BF96"/>
<path d="M96.52 61.46H89.26C89.26 61.98 89.26 62.5 89.26 63.01H95.12C107.86 63.01 116.33 73.19 116.33 88.65C116.33 104.11 107.86 114.29 95.12 114.29H89.76C89.77 114.81 89.77 115.33 89.78 115.84H96.52C113.22 115.84 125.89 104.11 125.89 88.65C125.88 73.19 113.22 61.46 96.52 61.46Z" fill="#F2BF96"/>
</svg>
