<svg width="20" height="20" viewBox="0 0 20 20" fill="none" xmlns="http://www.w3.org/2000/svg">
<path d="M10.0018 5.89693C7.73162 5.89693 5.9005 7.72805 5.9005 9.99822C5.9005 12.2684 7.73162 14.0995 10.0018 14.0995C12.2719 14.0995 14.1031 12.2684 14.1031 9.99822C14.1031 7.72805 12.2719 5.89693 10.0018 5.89693ZM10.0018 12.6646C8.53475 12.6646 7.33542 11.4688 7.33542 9.99822C7.33542 8.52761 8.53118 7.33185 10.0018 7.33185C11.4724 7.33185 12.6682 8.52761 12.6682 9.99822C12.6682 11.4688 11.4688 12.6646 10.0018 12.6646ZM15.2274 5.72917C15.2274 6.26101 14.7991 6.68578 14.2708 6.68578C13.739 6.68578 13.3142 6.25745 13.3142 5.72917C13.3142 5.20089 13.7426 4.77256 14.2708 4.77256C14.7991 4.77256 15.2274 5.20089 15.2274 5.72917ZM17.9438 6.70006C17.8831 5.41863 17.5904 4.28355 16.6516 3.34835C15.7165 2.41316 14.5814 2.12047 13.2999 2.05622C11.9793 1.98126 8.02075 1.98126 6.70006 2.05622C5.4222 2.1169 4.28712 2.40959 3.34835 3.34479C2.40959 4.27998 2.12047 5.41506 2.05622 6.69649C1.98126 8.01718 1.98126 11.9757 2.05622 13.2964C2.1169 14.5778 2.40959 15.7129 3.34835 16.6481C4.28712 17.5833 5.41863 17.876 6.70006 17.9402C8.02075 18.0152 11.9793 18.0152 13.2999 17.9402C14.5814 17.8795 15.7165 17.5868 16.6516 16.6481C17.5868 15.7129 17.8795 14.5778 17.9438 13.2964C18.0187 11.9757 18.0187 8.02075 17.9438 6.70006ZM16.2376 14.7134C15.9592 15.4131 15.4202 15.952 14.717 16.234C13.664 16.6516 11.1654 16.5553 10.0018 16.5553C8.83815 16.5553 6.33597 16.6481 5.28656 16.234C4.58695 15.9556 4.04796 15.4166 3.76598 14.7134C3.34835 13.6605 3.44473 11.1619 3.44473 9.99822C3.44473 8.83458 3.35192 6.3324 3.76598 5.28299C4.04439 4.58338 4.58338 4.04439 5.28656 3.76241C6.33954 3.34479 8.83815 3.44116 10.0018 3.44116C11.1654 3.44116 13.6676 3.34835 14.717 3.76241C15.4166 4.04083 15.9556 4.57981 16.2376 5.28299C16.6552 6.33597 16.5588 8.83458 16.5588 9.99822C16.5588 11.1619 16.6552 13.664 16.2376 14.7134Z" fill="#1F1F1F"/>
</svg>
