<?xml version="1.0" encoding="utf-8"?>
<!-- Generator: Adobe Illustrator 24.2.3, SVG Export Plug-In . SVG Version: 6.00 Build 0)  -->
<svg version="1.1" id="Слой_1" xmlns="http://www.w3.org/2000/svg" xmlns:xlink="http://www.w3.org/1999/xlink" x="0px" y="0px"
	 viewBox="0 0 1080 1080" style="enable-background:new 0 0 1080 1080;" xml:space="preserve">
<style type="text/css">
	.st0{fill:#4E1411;}
	.st1{fill:#F2BF96;}
</style>
<g>
	<g>
		<path class="st0" d="M357.57,545.73v-46.3c0-2.53-0.76-5.15-2.03-6.42h14.19c-1.27,1.27-2.11,3.89-2.11,6.42v46.3
			c0,2.53,0.85,5.15,2.11,6.42h-14.19C356.81,550.88,357.57,548.26,357.57,545.73z"/>
		<path class="st0" d="M418.64,552.15c0.51-1.44-0.17-3.8-1.61-6l-17.91-24.84l-7.01,6.51v17.91c0,2.53,0.85,5.15,2.11,6.42h-14.19
			c1.27-1.27,2.03-3.89,2.03-6.42v-46.3c0-2.53-0.76-5.15-2.03-6.42h14.19c-1.27,1.27-2.11,3.89-2.11,6.42v25.77l25.43-23.74
			c2.62-2.37,3.04-5.66,1.27-8.45h13.85c-2.53,0.84-7.43,3.97-11.91,8.19l-14.61,13.52l22.72,31.68c1.77,2.45,3.8,4.73,5.15,5.74
			H418.64z"/>
		<path class="st0" d="M491.8,552.15h-10.81c-2.37-1.27-4.48-3.38-5.83-5.83l-7.94-15.38c-0.93-1.77-2.45-3.29-4.48-4.14h-12.08
			v18.92c0,2.53,0.85,5.15,2.11,6.42h-14.19c1.27-1.27,2.03-3.89,2.03-6.42v-46.3c0-2.53-0.76-5.15-2.03-6.42h26.27
			c12.33,0,21.8,7.1,21.8,16.9c0,8.7-7.43,15.29-17.83,16.64c4.65,1.01,8.53,3.29,10.31,7.01l6.67,12.17
			C487.24,548.43,489.61,551.05,491.8,552.15z M450.66,525.12h12c8.19,0,13.6-6,13.6-15.21s-5.41-15.21-13.6-15.21h-12V525.12z"/>
		<path class="st0" d="M493.66,522.58c0-17.32,13.35-30.41,31.17-30.41c17.74,0,31.17,13.09,31.17,30.41
			c0,17.32-13.43,30.41-31.17,30.41C507.01,553,493.66,539.9,493.66,522.58z M545.61,522.58c0-17.32-8.28-28.72-20.78-28.72
			c-12.5,0-20.78,11.4-20.78,28.72c0,17.32,8.28,28.72,20.78,28.72C537.34,551.31,545.61,539.9,545.61,522.58z"/>
		<path class="st0" d="M627.47,545.73c0,2.53,0.84,5.15,2.03,6.42h-14.11c1.27-1.27,2.03-3.89,2.03-6.42v-48.41l-23.65,54.83h-1.69
			l-23.57-54.83v46.04c0,3.55,1.69,7.01,4.39,8.79H562c2.7-1.77,4.48-5.24,4.48-8.79v-43.93c0-2.53-1.18-5.15-2.96-6.42h13.69
			l19.85,45.79l19.85-45.79h12.59c-1.18,1.27-2.03,3.89-2.03,6.42V545.73z"/>
		<path class="st0" d="M719.04,522.58c0,16.81-13.77,29.57-31.93,29.57H662.1c1.27-1.27,2.03-3.89,2.03-6.42v-46.3
			c0-2.53-0.76-5.15-2.03-6.42h25.01C705.27,493.01,719.04,505.77,719.04,522.58z M708.65,522.58c0-16.81-9.21-27.88-23.06-27.88
			h-11.4v55.76h11.4C699.45,550.46,708.65,539.39,708.65,522.58z"/>
		<path class="st0" d="M772.01,540.41v11.74h-44.69c1.27-1.27,2.03-3.89,2.03-6.42v-46.3c0-2.53-0.76-5.15-2.03-6.42h43.85v11.66
			c-2.7-6-8.03-9.97-13.43-9.97H739.4v26.61h14.61c4.14,0,8.28-2.28,10.39-5.74v13.18c-2.11-3.46-6.25-5.74-10.39-5.74H739.4v27.46
			h19.18C763.98,550.46,769.31,546.49,772.01,540.41z"/>
		<path class="st0" d="M776.91,522.58c0-17.06,13.35-30.41,31.43-30.41c12.93,0,23.06,6.93,23.06,14.87c0,3.72-2.37,6.34-5.91,6.34
			c-3.46,0-6.08-2.53-6.08-5.91c3.72,0,6.25-1.86,6.25-4.56c0-4.14-6.08-8.28-14.7-8.28c-14.28,0-23.65,10.73-23.65,27.88
			c0,17.23,9.38,28.05,23.74,28.05c8.7,0,15.54-4.06,19.09-10.39l1.86,1.18c-3.63,6.67-12.5,11.66-23.57,11.66
			C790.85,553,776.91,540.07,776.91,522.58z"/>
		<path class="st0" d="M836.89,522.58c0-17.32,13.35-30.41,31.17-30.41c17.74,0,31.17,13.09,31.17,30.41
			c0,17.32-13.43,30.41-31.17,30.41C850.24,553,836.89,539.9,836.89,522.58z M888.84,522.58c0-17.32-8.28-28.72-20.78-28.72
			c-12.5,0-20.78,11.4-20.78,28.72c0,17.32,8.28,28.72,20.78,28.72C880.56,551.31,888.84,539.9,888.84,522.58z"/>
		<path class="st0" d="M960.73,552.15h-10.81c-2.37-1.27-4.48-3.38-5.83-5.83l-7.94-15.38c-0.93-1.77-2.45-3.29-4.48-4.14h-12.08
			v18.92c0,2.53,0.85,5.15,2.11,6.42h-14.19c1.27-1.27,2.03-3.89,2.03-6.42v-46.3c0-2.53-0.76-5.15-2.03-6.42h26.27
			c12.33,0,21.8,7.1,21.8,16.9c0,8.7-7.43,15.29-17.83,16.64c4.65,1.01,8.53,3.29,10.31,7.01l6.67,12.17
			C956.17,548.43,958.54,551.05,960.73,552.15z M919.59,525.12h12c8.19,0,13.6-6,13.6-15.21s-5.41-15.21-13.6-15.21h-12V525.12z"/>
	</g>
	<g>
		<g>
			<path class="st1" d="M169.16,620.45c-1.61-1.81-2.07-3.66-0.72-5.82c-1.52-1.37-3.16-2.49-4.47-3.98
				c-1.92-2.18-2.69-4.68-2.28-7.54c0.49-3.43,3.41-6.06,6.86-6.22c2.66-0.12,5.33,0.94,7.64,3.06c-4.66,0.31-6.02,3.92-5.07,6.77
				c1.26,3.74,6.4,6.39,10.4,5.35c-0.77-0.74-0.85-2.77-0.77-3.51c0.18-1.59,0.79-3.09,1.85-3.69c0.92,6.46,5.79,8.22,9.84,7.88
				c5.64-0.48,7.68-1.42,11.37-6.95c1.12-1.68,0.92-3.69,0.16-5.08c-4.38,0.7-4.45,0.68-6.76-1.16c4.18-1.17,5.57-4.13,5.42-8.11
				c-0.13-3.49-1.24-5.11-4.57-6.4c0.53,0.72,0.6,1.62,0.2,2.29c-0.52,0.87-1.57,0.91-1.85,0.92c-0.79,0.03-1.92-0.29-2.35-1.24
				c-0.58-1.26,0.58-2.58,0.71-2.73c0.57-0.69,1.49-1.1,2.75-1.21c2.18-0.2,4.31,0.74,5.85,2.3c3.31,3.34,4.56,7.59,5.12,12.06
				c0.39,3.13-0.14,6.28-1.04,9.28c-2.32,7.75-8.14,11.28-15.68,12.56c-4.14,0.71-8.28,0.72-12.48,0.19
				C175.94,619.06,172.44,618.68,169.16,620.45z"/>
			<path class="st1" d="M176.03,569.05c0.08-0.1,0.24-0.1,0.33-0.01c1.39,1.36,1.82,3.07,1.99,4.7c0.41,4.07,2.76,6.63,6.04,8.59
				c2.52,1.51,4.95,3.11,6.84,5.42c2.94,3.58,3.43,9.35,1.05,12.9c-1.3,1.94-3.06,3.08-5.48,3.08c-2.84-0.01-5.2-2-4.92-4.52
				c0.67-6.02,5.74-5.46,8.02-4.36c0.15,0.07,0.32-0.03,0.32-0.2c-0.01-2.19-1.17-3.61-2.54-3.99c-2.61-0.72-4.34-0.16-6.43,2.7
				c-0.04,0.06-0.12,0.1-0.19,0.1c-1.24-0.01-1.84-0.76-1.79-1.93c0.11-2.5,4.02-3.82,4.02-3.82s-4.39-1.01-5.86,1.13
				c-0.72,1.05-1.5,1.82-2.33,2.35c-4.16,2.64-8.34-3.6-4.42-6.58c0.91-0.69,2.09-1.41,3.57-2.21c0.13-0.07,0.17-0.24,0.07-0.35
				c-1.04-1.11-2.58-1.87-2.64-3.63c-0.03-0.9,0.08-1.74,0.41-2.53c0.35-0.82,1.15-1.35,2.02-1.47l0,0c0.1-0.01,0.18-0.1,0.19-0.2
				C174.47,572.37,174.72,570.57,176.03,569.05z"/>
			<path class="st1" d="M157.69,592.29c0.17-0.73,0.22-1.25,0.42-1.71c0.73-1.7,2.25-2.35,3.78-1.66c1.49,0.68,1.94,2.3,1.09,4
				c-0.92,1.87-3.54,3.15-5.82,2.82c-3.45-0.5-6.03-2.71-7.75-7.01c-2.15-5.38-0.4-11.63,4.19-15.17c3.03-2.33,6.49-3.7,10.27-4.22
				c2.25-0.31,3.92,0.02,5.16,1.04c1.37,1.12,1.74,3.14,0.91,4.7c-0.36,0.69-0.81,1.05-1.5,1.2c-1.59,0.35-3.14-0.83-3.39-2.44
				c-0.04-0.27-0.08-0.61-0.13-1.03c-2.31-1.17-5.39-0.22-6.25,0.91c1.79,0.72,1.79,2.56,1.25,3.51c-0.75,1.33-3.45,0.81-4.26,2.77
				c0.18-0.03,2.02-0.03,1.65,1.96c-2.34,0.76-4.3,2.04-4.27,4.84C153.07,589.31,154.72,591.26,157.69,592.29z"/>
			<path class="st1" d="M211.88,462.5l-0.05-0.05c0.01-0.01,0.03-0.02,0.04-0.03C211.86,462.44,211.87,462.48,211.88,462.5z"/>
			<path class="st1" d="M207.67,617.33c-2.31,6.84-1.74,7.25,1.28,8.38c-0.09,0.24-0.51,1.26-1.59,1.74
				c-1.2,0.54-2.33,0.02-2.74-0.16c-1.37-0.62-1.94-1.85-2.08-2.19c-0.23,0.47-0.68,1.24-1.49,1.92c-0.54,0.45-1.51,1.25-2.91,1.22
				c-1.52-0.03-2.52-1.03-2.76-1.29c-5.55,2.3-10.3,0.21-14.96-2.69C190.2,624.79,199.89,625.15,207.67,617.33z"/>
			<path class="st1" d="M134.86,583.71c1.93,4.71,4.89,7.35,8.71,9.16c3.11,1.47,6.42,2.52,9.28,4.51c1.2,0.84,2.41,1.65,3.3,2.85
				c0.68,0.92,1.09,1.84,1.09,2.79c0,1.69-1.79,2.88-3.38,2.3c-0.01,0-0.02-0.01-0.03-0.01c-1.81-1.12-1.28-2.59-0.51-3.98
				c-1.54-1.75-3.59-2.02-5.45-2.59c-2.61-0.81-5.2-1.63-7.42-3.24C136.71,592.79,134.21,589.39,134.86,583.71z"/>
			<path class="st1" d="M149.37,604.55c0.75,0.86,1.37,1.84,2.18,2.64c2.43,2.38,3.79,2.58,6.99,1.17c0.87,0.31,0.06,2.98,0.06,2.98
				s2.58,0.09,2.71,1.11c-1.24,1.55-3.63,1.66-5.48,0.74c-1.34-0.67-10.25-7.18-12.36-11.39
				C143.47,601.79,147.8,602.76,149.37,604.55z"/>
			<path class="st1" d="M145.17,581.42c0.21,3.34,0.59,6.42,2.34,9.5c-2.54-0.62-4.5-1.6-6.38-3.15c0.78-1.11,1.68-2.02,1.57-3.56
				C142.62,582.93,143.71,582.05,145.17,581.42z"/>
			<g>
				<path class="st1" d="M119.27,544.56c0.91-2.25,2.36-3.48,4.89-3.23c0.55-1.97,0.82-3.93,1.57-5.77c1.1-2.69,3-4.49,5.74-5.4
					c3.29-1.09,6.94,0.35,8.62,3.37c1.29,2.33,1.53,5.2,0.65,8.2c-2.35-4.03-6.19-3.65-8.32-1.52c-2.79,2.79-2.87,8.57-0.16,11.7
					c0.32-1.02,2.1-2,2.8-2.25c1.5-0.54,3.12-0.66,4.13,0.01c-5.37,3.7-4.79,8.84-2.67,12.32c2.94,4.84,4.69,6.25,11.29,7.09
					c2.01,0.26,3.72-0.82,4.63-2.11c-2.57-3.61-2.59-3.68-1.97-6.57c2.9,3.22,6.18,3.15,9.67,1.25c3.07-1.67,4.02-3.38,3.7-6.93
					c-0.41,0.79-1.18,1.26-1.96,1.2c-1.01-0.08-1.52-1-1.65-1.24c-0.38-0.69-0.59-1.85,0.06-2.65c0.88-1.08,2.57-0.62,2.76-0.58
					c0.87,0.21,1.65,0.84,2.31,1.92c1.15,1.87,1.25,4.19,0.54,6.26c-1.52,4.45-4.76,7.46-8.52,9.95c-2.63,1.75-5.69,2.67-8.78,3.2
					c-7.98,1.38-13.72-2.28-18.23-8.45c-2.48-3.39-4.33-7.09-5.72-11.09C123.53,550.01,122.31,546.72,119.27,544.56z"/>
				<path class="st1" d="M168.35,527.85c0.12,0.03,0.2,0.17,0.16,0.29c-0.6,1.85-1.94,3-3.33,3.87c-3.46,2.18-4.7,5.42-5,9.23
					c-0.23,2.93-0.59,5.82-1.81,8.53c-1.9,4.23-6.84,7.23-11.08,6.68c-2.32-0.3-4.12-1.37-5.19-3.54c-1.26-2.54-0.53-5.55,1.86-6.42
					c5.69-2.08,7.45,2.71,7.47,5.25c0,0.16,0.17,0.27,0.32,0.2c1.96-0.98,2.71-2.66,2.44-4.05c-0.52-2.66-1.79-3.96-5.28-4.56
					c-0.07-0.01-0.14-0.06-0.17-0.13c-0.54-1.11-0.14-1.98,0.93-2.46c2.28-1.01,5.21,1.9,5.21,1.9s-1.05-4.38-3.62-4.75
					c-1.26-0.18-2.29-0.53-3.14-1.04c-4.22-2.55-0.48-9.07,3.93-6.89c1.03,0.51,2.2,1.24,3.56,2.21c0.12,0.08,0.29,0.04,0.34-0.09
					c0.53-1.43,0.53-3.14,2.08-3.98c0.79-0.43,1.59-0.7,2.45-0.76c0.89-0.05,1.72,0.42,2.22,1.16l0,0c0.06,0.08,0.16,0.12,0.26,0.08
					C164.69,527.92,166.41,527.34,168.35,527.85z"/>
				<path class="st1" d="M139.38,521.76c0.73-0.17,1.22-0.36,1.72-0.39c1.85-0.1,3.11,0.97,3.17,2.64c0.05,1.64-1.2,2.76-3.1,2.76
					c-2.08,0.01-4.4-1.76-5.12-3.96c-1.09-3.31-0.26-6.6,2.83-10.06c3.86-4.32,10.23-5.54,15.45-3c3.44,1.67,6.2,4.17,8.35,7.32
					c1.28,1.87,1.72,3.52,1.37,5.08c-0.39,1.73-2.04,2.95-3.8,2.9c-0.78-0.02-1.3-0.26-1.74-0.81c-1.02-1.27-0.66-3.18,0.67-4.12
					c0.23-0.16,0.51-0.34,0.86-0.58c0.02-2.59-2.2-4.92-3.6-5.19c0.15,1.92-1.5,2.74-2.58,2.69c-1.53-0.07-2.26-2.73-4.37-2.58
					c0.1,0.14,0.92,1.8-1.02,2.35c-1.72-1.76-3.74-2.94-6.23-1.67C139.99,516.29,138.99,518.64,139.38,521.76z"/>
				<path class="st1" d="M139.2,577.66c-7.16,0.97-7.27,1.66-6.94,4.87c-0.25,0.03-1.35,0.11-2.27-0.65
					c-1.01-0.84-1.06-2.08-1.07-2.53c-0.05-1.51,0.8-2.56,1.04-2.84c-0.52,0-1.41-0.06-2.38-0.49c-0.64-0.28-1.79-0.79-2.39-2.06
					c-0.64-1.37-0.2-2.72-0.08-3.05c-4.53-3.94-4.77-9.13-4.25-14.6C124.75,565.34,128.73,574.18,139.2,577.66z"/>
				<path class="st1" d="M136.9,497.5c-3.36,3.83-4.4,7.65-4.33,11.87c0.06,3.44,0.6,6.87,0.09,10.32
					c-0.21,1.45-0.41,2.89-1.08,4.22c-0.52,1.02-1.17,1.79-2.01,2.22c-1.51,0.75-3.37-0.32-3.56-2c0-0.01,0-0.02,0-0.03
					c0.2-2.11,1.75-2.3,3.33-2.23c0.88-2.16,0.21-4.12-0.1-6.03c-0.44-2.69-0.85-5.38-0.4-8.09
					C129.6,503.19,131.53,499.45,136.9,497.5z"/>
				<path class="st1" d="M124.7,519.76c-0.43,1.06-1.04,2.05-1.39,3.13c-1.05,3.24-0.63,4.54,2.06,6.78
					c0.11,0.91-2.64,1.38-2.64,1.38s1.06,2.35,0.21,2.92c-1.94-0.43-3.1-2.52-3.1-4.58c0-1.5,1.87-12.37,4.7-16.14
					C124.55,513.25,125.6,517.56,124.7,519.76z"/>
				<path class="st1" d="M143.54,505.72c-2.9,1.67-5.49,3.38-7.47,6.33c-0.57-2.55-0.56-4.74-0.01-7.12
					c1.34,0.21,2.56,0.6,3.89-0.17C141.06,504.1,142.33,504.68,143.54,505.72z"/>
			</g>
			<g>
				<path class="st1" d="M161.55,463.5c2.4-0.35,4.2,0.29,5.26,2.6c1.97-0.52,3.81-1.27,5.78-1.55c2.88-0.4,5.39,0.32,7.55,2.24
					c2.6,2.3,3.19,6.17,1.43,9.14c-1.36,2.29-3.72,3.94-6.75,4.7c2.3-4.06,0.03-7.19-2.87-7.95c-3.82-1-8.85,1.84-10.19,5.75
					c1.04-0.24,2.78,0.81,3.35,1.29c1.23,1.03,2.15,2.36,2.07,3.57c-5.9-2.78-10.05,0.32-11.99,3.9c-2.7,4.97-3.04,7.2-0.44,13.33
					c0.79,1.86,2.58,2.8,4.16,2.93c1.82-4.04,1.87-4.09,4.68-5.01c-1.32,4.13,0.39,6.92,3.79,8.98c2.99,1.81,4.95,1.77,7.85-0.3
					c-0.89,0.05-1.69-0.39-2.03-1.09c-0.44-0.91,0.1-1.82,0.24-2.05c0.41-0.68,1.3-1.44,2.32-1.28c1.37,0.21,1.83,1.9,1.89,2.1
					c0.26,0.86,0.1,1.85-0.49,2.96c-1.03,1.94-2.98,3.19-5.13,3.62c-4.61,0.93-8.84-0.36-12.89-2.35c-2.83-1.39-5.17-3.57-7.19-5.97
					c-5.21-6.2-4.95-13-1.88-20c1.68-3.85,3.95-7.31,6.69-10.53C158.98,469.93,161.22,467.22,161.55,463.5z"/>
				<path class="st1" d="M200.71,497.48c0.03,0.12-0.05,0.26-0.17,0.29c-1.9,0.42-3.57-0.17-5.02-0.92
					c-3.63-1.89-7.05-1.33-10.5,0.33c-2.64,1.28-5.32,2.42-8.28,2.74c-4.61,0.49-9.69-2.27-11.35-6.21
					c-0.91-2.16-0.89-4.25,0.44-6.27c1.56-2.37,4.53-3.25,6.48-1.62c4.66,3.87,1.41,7.79-0.77,9.1c-0.14,0.08-0.15,0.28-0.01,0.37
					c1.83,1.2,3.66,1,4.73,0.07c2.04-1.79,2.52-3.54,1.28-6.85c-0.03-0.07-0.02-0.15,0.02-0.21c0.69-1.03,1.64-1.12,2.59-0.43
					c2.03,1.46,0.98,5.46,0.98,5.46s3.25-3.11,2.27-5.52c-0.48-1.18-0.7-2.25-0.68-3.23c0.08-4.92,7.6-4.99,7.93-0.07
					c0.08,1.14,0.03,2.52-0.12,4.19c-0.01,0.14,0.11,0.27,0.25,0.25c1.5-0.26,2.98-1.12,4.48-0.21c0.77,0.47,1.41,1.02,1.88,1.73
					c0.49,0.74,0.5,1.7,0.12,2.5l0,0c-0.04,0.09-0.02,0.2,0.06,0.26C198.8,494.36,200.17,495.55,200.71,497.48z"/>
				<path class="st1" d="M191.38,469.39c0.51,0.54,0.92,0.87,1.2,1.29c1.02,1.55,0.73,3.18-0.69,4.07
					c-1.39,0.87-2.98,0.35-3.95-1.29c-1.05-1.8-0.69-4.69,0.84-6.42c2.31-2.61,5.58-3.55,10.11-2.62
					c5.68,1.16,9.94,6.05,10.37,11.84c0.28,3.81-0.48,7.46-2.12,10.9c-0.97,2.05-2.17,3.26-3.7,3.74c-1.69,0.53-3.57-0.27-4.43-1.82
					c-0.37-0.68-0.43-1.26-0.17-1.91c0.58-1.52,2.42-2.17,3.9-1.49c0.25,0.12,0.55,0.26,0.94,0.45c2.25-1.29,3.14-4.38,2.67-5.72
					c-1.58,1.1-3.12,0.08-3.62-0.88c-0.7-1.36,1.22-3.32,0.03-5.08c-0.07,0.16-1.09,1.7-2.54,0.3c0.65-2.38,0.66-4.71-1.7-6.23
					C196.41,467.16,193.87,467.48,191.38,469.39z"/>
				<path class="st1" d="M142.99,497.39c-4.44-5.69-5.1-5.44-7.7-3.54c-0.15-0.21-0.77-1.11-0.58-2.29c0.21-1.3,1.26-1.96,1.64-2.2
					c1.27-0.81,2.61-0.6,2.97-0.53c-0.27-0.45-0.66-1.25-0.78-2.3c-0.08-0.69-0.22-1.95,0.58-3.1c0.86-1.25,2.25-1.54,2.6-1.6
					c1.13-5.9,5.49-8.72,10.47-11.02C146.36,478.7,140.73,486.59,142.99,497.39z"/>
				<path class="st1" d="M211.08,455.03c-5-0.97-8.83,0.05-12.44,2.24c-2.94,1.79-5.63,3.98-8.87,5.28c-1.36,0.55-2.7,1.1-4.19,1.19
					c-1.14,0.06-2.14-0.1-2.93-0.62c-1.41-0.93-1.42-3.07-0.07-4.09c0.01-0.01,0.02-0.01,0.02-0.02c1.93-0.89,2.87,0.35,3.6,1.76
					c2.31-0.32,3.66-1.89,5.16-3.13c2.11-1.74,4.22-3.45,6.79-4.42C202.49,451.58,206.7,451.37,211.08,455.03z"/>
				<path class="st1" d="M185.7,455.7c-1.13,0.16-2.29,0.14-3.4,0.38c-3.33,0.72-4.23,1.75-4.82,5.2c-0.73,0.56-2.53-1.59-2.53-1.59
					s-1.5,2.1-2.42,1.66c-0.61-1.89,0.61-3.95,2.4-4.98c1.3-0.75,11.63-4.62,16.31-4.07C191.25,452.29,188.06,455.37,185.7,455.7z"
					/>
				<path class="st1" d="M207.33,464.9c-2.9-1.66-5.69-3.04-9.23-3.27c1.91-1.78,3.81-2.88,6.14-3.6c0.5,1.26,0.77,2.51,2.11,3.27
					C207.48,461.95,207.61,463.33,207.33,464.9z"/>
			</g>
			<path class="st1" d="M143.39,499.54c0.09,0.02,0.26,0.05,0.26,0.07c-0.01,0.2-0.09,0.16-0.21-0.12L143.39,499.54z"/>
		</g>
		<g>
			<path class="st1" d="M299.75,555.98c2.35-3.08,4-6.52,4.02-10.43c0.01-2.51-0.19-5.14-0.94-7.51c-1.66-5.25-3.2-10.41-1.23-16.11
				c-3.69,2.62-4.82,6.31-4.04,12.8c-1.49-0.17-2.91-0.05-3.71,1.63c3.36,1.9,6.32,4.13,6.74,8.24c0.4,3.87-0.98,7.27-2.97,10.35
				c-1.55-0.84-2.9-1.58-4.35-2.38c0.08-0.35,0.21-0.79,0.27-1.24c0.57-3.93-0.54-7.32-3.5-9.97c-1.55-1.39-3.31-0.95-3.98,1.02
				c-0.72,2.1-1.9,3.8-3.77,5.11c-2.07,1.43-3.98,3.07-5.88,4.71c-1.89,1.63-3.12,1.99-4.63,1.13c-2.56-1.45-3.71-4.51-2.12-6.74
				c1.04-1.45,2.94-1.97,4.65-1.48c0.98,0.28,1.93,0.68,2.9,1.01c-0.27-2.66-1.33-3.97-3.75-4.67c0.86-1.66,0.78-2.82-0.25-3.65
				c-0.96-0.77-2.44-0.62-3.74,0.37c-1.32,1.02-1.43,2.27-0.19,3.94c0.56,0.77,0.96,1.61,0.05,2.09c-0.47,0.25-1.66-0.15-2.06-0.63
				c-1.53-1.87-2.33-4.21-2.03-6.54c0.71-5.35,4.08-9.25,7.67-13.03c0.4,0.34,0.67,0.5,0.87,0.74c1.86,2.23,3.17,4.73,3.51,7.66
				c0.39,3.31,2.81,5.58,6,5.6c3.14,0.02,5.57-2.14,6.06-5.36c0.04-0.29,0.13-0.57,0.21-0.89c2.7,0.03,4.73-1.04,5.96-3.37
				c1.23-2.33,0.81-4.61-0.56-6.75c4.27-2.18,5.89-5.37,4.77-9.24c-1.33-4.6-4.11-6.27-9.61-5.74c-0.17-2.54-1.21-4.61-3.58-5.76
				c-2.43-1.18-4.73-0.72-6.9,0.87c-0.41-0.45-0.73-0.87-1.12-1.2c-2.23-1.89-5.5-1.9-7.75-0.04c-2.2,1.81-2.69,4.88-1.54,7.5
				c0.86,1.96,1.44,4.08,1.9,6.18c0.24,1.09-0.04,2.29-0.1,3.56c-4.47-0.75-8.44-1.85-11.97-4.21c-2.6-1.74-3.87-4.29-4.27-7.29
				c-0.15-1.09-0.34-2.61,1.2-2.77c1.54-0.15,1.18,1.3,1.28,2.29c0.14,1.36,0.7,2.39,2.25,2.52c1.62,0.14,3.12-0.6,3.45-1.82
				c0.41-1.53-0.36-2.47-1.71-3.05c-0.07-0.03-0.1-0.16-0.16-0.26c1.8-1.86,1.22-3.83,0.35-5.94c-0.74,1.01-1.35,2.01-2.07,2.88
				c-1.22,1.46-3.31,1.99-4.99,1.09c-2.14-1.15-2.82-4.02-1.69-6.51c0.7-1.53,1.94-2.04,4.23-1.8c1.8,0.19,3.62,0.59,5.41,0.46
				c3.21-0.22,6.18,0,8.85,2.09c1.19,0.93,2.41,0.47,3.03-0.94c0.29-0.65,0.46-1.39,0.51-2.1c0.28-4.01-1.15-7.32-4.21-9.75
				c0.74-1.52,1.45-2.99,2.18-4.49c3.44,1.47,6.56,3.32,8.46,6.63c2.08,3.61,0.94,7.19-0.59,10.69c1.67,0.84,2.83,0.12,3.92-0.84
				c3.67,5.93,6.8,8.27,10.49,7.86c-4.61-4.56-5.99-6.53-7.3-11.29c-2.09-7.63-6.49-12.99-14.27-15.28
				c-0.43-0.13-0.83-0.58-0.91-1.02c-0.55-2.94-1.95-5.44-3.8-7.73c-0.37-0.47-0.87-0.94-1.41-1.16c-2.72-1.13-5.55-1.79-8.51-1.38
				c-0.96,0.13-1.48-0.14-2.02-0.93c-2.93-4.23-6.84-7.14-11.97-8c-2.49-0.42-5.06-0.38-7.6-0.43c-4.25-0.1-8.24-0.97-11.76-3.48
				c-0.09-0.06-0.23-0.03-0.5-0.07c2.1,4.83,5.84,7,11.01,7.47c-0.67,1.55-0.92,2.91,0.36,4.11c7.09-6.95,14.01-3.93,18.46,1.84
				c-1.1,1.26-2.14,2.45-3.25,3.72c-0.11-0.07-0.36-0.24-0.63-0.39c-3.44-1.91-6.96-1.97-10.45-0.28c-2.36,1.14-2.84,2.93-0.49,4.74
				c1.36,1.05,2.4,2.71,3.15,4.3c1.21,2.56,2.14,5.26,3.03,7.96c0.34,1.03,0.65,2.36,0.28,3.28c-0.59,1.49-1.91,2.23-3.42,2.52
				c-1.81,0.35-3.74-0.33-4.75-1.87c-1.08-1.65-0.59-3.16,0.39-4.57c0.57-0.82,1.24-1.57,1.97-2.48c-2.44-0.19-4.52-0.12-5.65,2.28
				c-1.43-1.41-2.62-1.69-3.7-0.89c-0.99,0.73-1.26,2.45-0.62,3.87c0.62,1.38,1.74,1.77,3.72,1.11c0.88-0.29,1.7-0.28,1.89,0.62
				c0.1,0.48-0.56,1.15-0.94,1.68c-0.13,0.18-0.46,0.24-0.7,0.3c-2.28,0.53-4.59,0.6-6.71-0.46c-4.75-2.38-7.28-6.7-9.72-11.1
				c2.18-1.56,6.57-2.29,9.31-1.66c3.03,0.7,5.98-0.82,7.09-3.66c1.19-3.07-0.19-6.42-3.35-7.82c-0.16-0.31-0.25-0.51-0.41-0.82
				c0.6-2.39,0.2-4.49-1.55-6.27c-1.84-1.89-4.13-2.12-6.56-1.58c-0.81-4.68-3.33-7.2-7.23-7.37c-0.17-0.01-0.35-0.01-0.52-0.01
				v4.97c0,1.81,0.84,3.46,2.14,4.72c1.42,1.37,2.17,4.02,1.72,6.7c5.21-0.4,8.04,1.41,8.78,5.66c-1.69,0.08-3.38,0.13-5.06,0.26
				c-1.78,0.13-3.3,0.82-4.39,2.31c-0.86,1.18-1.76,2.32-2.95,3.4c-0.08-0.09-0.16-0.19-0.24-0.28v6.31
				c0.46,0.03,0.93,0.23,1.37,0.61c0.5,0.43,0.99,0.95,1.3,1.53c3.83,7.19,10.08,10.28,17.94,10.18c3.85-0.05,7.69-0.82,11.45-1.26
				c0.36,2.48,0.47,5.41,1.25,8.15c0.86,3.01,2.08,5.99,3.62,8.71c2.54,4.51,6.75,6.9,11.74,8c0.05,0.01,0.1,0.02,0.15,0.03
				c1.41,0.25,2.88,0.56,3.39,2.09c0.5,1.53-0.53,2.64-1.49,3.7c-3.41,3.78-5.39,8.15-5.03,13.31c0.4,5.71,2.38,10.91,5.61,15.64
				c0.26,0.38,0.5,0.78,0.75,1.17c0.02,0.04,0,0.1,0,0.23c-4.54,1.53-8.73,3.73-12.34,6.97c-5.03,4.52-7.37,10.05-6.48,16.84
				c0.03,0.21,0.04,0.41,0.05,0.62c0.11,3.04-1.53,4.15-4.4,3.05c-1.74-0.66-3.48-1.37-5.29-1.78c-4.48-1.02-8.65,0.07-12.59,2.22
				c-3.94,2.15-7.19,5.09-9.97,8.58c-0.34,0.43-0.68,0.86-1.02,1.29v7.53c2.55,0.03,4.61,1.37,5.49,3.92
				c0.94,2.76,2.76,4.56,5.32,5.75c0.18,0.08,0.33,0.22,0.5,0.32c-1.63,2.39-3.16,2.82-6.37,1.98c-0.66,1.99-0.9,4.25-2.05,5.87
				l-0.04,0.06c-1.86,2.61-2.85,5.73-2.85,8.94v1.08c0.18-0.01,0.35-0.03,0.52-0.07c2.96-0.73,5.69-1.91,7.99-4.01
				c0.38-0.34,1.16-0.45,1.71-0.36c1.84,0.31,3.63,0.94,5.47,1.12c5.49,0.54,10.16-1.52,14.38-4.85c3.72-2.94,7.83-4.88,12.65-5.05
				c0.1,0,0.2-0.12,0.43-0.27c-4.59-2.66-8.92-2.06-13.19,0.46c-0.38-1.62-0.94-2.88-2.72-3.05c-1.5,8.87-7.67,11.55-16.11,9.28
				c0.28-2.75,0.21-2.07,0.49-4.81c4.37-0.36,7.68-2.4,9.59-6.39c1.1-2.29,0.15-3.43-2.34-3.74c-1.72-0.21-3.41-0.64-4.95-1.45
				c-2.64-1.39-5.1-3.15-7.54-4.89c-0.84-0.6-1.8-1.46-2.05-2.38c-0.44-1.59,0.21-2.99,1.28-4.13c1.18-1.26,3.47-1.87,5.06-1.2
				c1.76,0.74,2.19,2.27,2.24,3.96c0.02,0.96-0.11,1.92-0.19,3.12c2.08-1.25,3.62-2.58,3.39-5.05c0.21-0.04,0.31-0.08,0.4-0.07
				c1.39,0.18,2.5-0.21,3-1.62c0.42-1.18-0.55-2.87-1.95-3.54c-1.31-0.63-2.3-0.08-3.15,0.91c-0.24,0.27-0.36,0.72-0.65,0.85
				c-0.46,0.21-1.08,0.42-1.49,0.26c-0.31-0.12-0.53-0.83-0.53-1.27c0-0.42,0.27-0.9,0.56-1.25c1.65-1.96,3.64-3.45,6.26-3.75
				c4.96-0.58,9.39,1.14,13.68,3.36c0.07,0.04,0.09,0.18,0.19,0.42c-1.49,2.8-3.66,5.02-6.62,6.39c-2.89,1.34-4.35,4.36-3.46,7.33
				c0.89,2.96,3.82,4.73,6.94,4.2c0.3-0.05,0.59-0.09,0.87-0.13c1.95,5.35,7.82,6.36,11.41,2.14c4.1,3.52,7.21,3.85,10.84,1.18
				c1.48-1.08,2.51-2.46,2.99-4.24c0.61-2.24,0.03-4.27-1.18-6.25c2.49-0.97,4.11-2.62,4.48-5.23c0.39-2.68-0.87-4.69-2.88-6.25
				c1.85-3.63,1.32-6.78-1.41-8.68c-2.76-1.93-5.55-1.14-8.6,1.51c-1.89,1.64-4.46,2.52-6.77,3.63c-0.83,0.4-1.37-0.07-1.4-1.04
				c-0.07-2.44-0.29-4.88-0.2-7.31c0.1-2.5,0.6-4.99,2.17-7.05c1.41-1.85,3.21-3.3,5.57-3.71c0.5-0.09,1.14,0.56,1.71,0.87
				c-0.36,0.48-0.65,1.03-1.09,1.42c-0.33,0.29-0.86,0.34-1.27,0.56c-1.15,0.63-1.59,1.59-1.2,2.88c0.46,1.52,1.61,2.59,2.81,2.5
				c1.33-0.09,2.02-0.92,2.29-2.17c0.04-0.19,0.08-0.39,0.12-0.59c2.35,0.78,3.83,0.37,5.79-1.6c-1.12-0.33-2.22-0.58-3.28-0.97
				c-1.38-0.51-2.41-1.39-2.64-2.98c-0.36-2.41,1.22-4.47,3.85-5c2.7-0.54,4.16,0.39,4.81,3.07c0.49,2.01,0.7,4.12,1.45,6.03
				c1.11,2.81,1.64,5.51,0.62,8.47c-0.55,1.59,0.27,2.61,1.96,2.79c0.51,0.05,1.04,0.02,1.55-0.09c4.14-0.86,6.94-3.32,8.45-7.12
				c1.65,0.23,3.22,0.45,4.87,0.68c-0.22,3.66-1.08,7.11-3.51,9.95c-2.79,3.26-6.63,3.22-10.46,2.9c-0.38,1.89,0.88,2.71,2.06,3.58
				c-3.84,3.34-5.61,7.29-4.35,12.33c1.67-4.57,4.72-8,8.71-10.61c6.52-4.27,10.1-10.09,9.95-18.02c-0.01-0.5,0.31-1.12,0.74-1.36
				c2.63-1.45,4.56-3.58,6.16-6.05c0.27-0.42,0.56-0.92,0.6-1.4c0.22-3.04,0.07-6.05-1.35-8.82
				C299.04,557.15,299.24,556.65,299.75,555.98z M275.7,510.08c-0.36-1.18-0.74-2.36-1.12-3.54c4.45-0.55,7.08,1.6,8.15,6.69
				c0.32-0.18,0.62-0.33,0.9-0.5c2.38-1.44,5.94-0.79,7.58,1.44c0.22,0.31,0.25,0.88,0.16,1.28c-0.72,3.32-2.48,4.82-5.88,5.1
				c-0.08,0.01-0.16,0.09-0.24,0.14c1.87,5.16,1.27,7.51-2.73,10.28c-0.39-1.18-0.75-2.34-1.15-3.48c-0.82-2.33-2.19-4-4.56-5.15
				c-4.36-2.11-4.13-1.26-1.8-5.58C276.24,514.51,276.41,512.41,275.7,510.08z M251.66,489.08c-2.12-1.45-3.11-3.54-2.47-5.93
				c0.87-3.21,0.66-6.13-1.1-8.94c2.7-1.11,4.44-0.45,6.64,2.48c0.35-0.46,0.68-0.9,1.02-1.32c1.79-2.19,4.15-3.18,6.94-3.33
				c0.92-0.05,1.27,0.31,1.48,1.17c0.79,3.25,0.25,6.18-2.08,8.86c2.83,0.79,4.7,2.28,4.53,5.58c-3.27-0.76-6.08-0.17-8.8,1.68
				C255.89,490.64,253.68,490.46,251.66,489.08z M254.91,589.64c2.59,0.43,4.69-0.06,6.73-1.47c0.98-0.68,1.92-1.4,2.97-2.16
				c1.73,4.46,0.66,7.15-3.93,9.96c2.94,1.94,3.19,4.59,2.1,7.62c-0.31,0.84-0.79,1.21-1.71,1.26c-3.32,0.19-5.18-0.96-6.69-4.35
				c-1.61,1.62-3.38,3.1-5.76,2.73c-1.67-0.26-3.25-1.06-5.21-1.74c1.67-1.28,2.91-2.19,4.1-3.16c1.59-1.3,2.33-2.95,2.66-5.06
				C250.97,588.06,250.15,588.83,254.91,589.64z M292.8,566.04c-2.8,1.61-5.65,1.9-8.79,0.6c0.09,2.98-0.82,5.2-3.94,6.06
				c-0.26-3.25-1.59-5.75-4.16-7.74c-1.93-1.5-2.56-3.7-1.79-6.17c0.79-2.51,2.54-4.03,5.07-4.15c3.21-0.14,5.84-1.23,7.94-3.83
				c1.85,2.45,1.77,3.93-0.28,7.22c3.18,0.78,5.4,2.67,6.71,5.66C294.06,564.8,293.88,565.42,292.8,566.04z"/>
		</g>
		<g>
			<path class="st1" d="M192.18,560.25v-42.57c0-2.33-0.7-4.74-1.86-5.9h13.05c-1.17,1.17-1.94,3.57-1.94,5.9v42.57
				c0,2.33,0.78,4.74,1.94,5.9h-13.05C191.48,564.99,192.18,562.58,192.18,560.25z"/>
		</g>
		<g>
			<path class="st1" d="M215.79,511.76h-7.26c0,0.52,0,1.04,0,1.55h5.86c12.74,0,21.21,10.18,21.21,25.64
				c0,15.46-8.47,25.64-21.21,25.64h-5.36c0.01,0.52,0.01,1.04,0.02,1.55h6.74c16.7,0,29.37-11.73,29.37-27.19
				C245.15,523.49,232.49,511.76,215.79,511.76z"/>
		</g>
	</g>
	<g>
		<path class="st1" d="M369.02,574.04v13.84h-2.53v-11.66h-5.46l-0.12,3.46c-0.07,1.94-0.22,3.51-0.47,4.71
			c-0.25,1.21-0.65,2.12-1.21,2.75c-0.55,0.63-1.32,0.94-2.29,0.94c-0.34,0-0.81-0.07-1.4-0.2l0.18-2.23
			c0.17,0.05,0.37,0.08,0.59,0.08c0.8,0,1.37-0.48,1.71-1.43c0.34-0.96,0.54-2.46,0.62-4.52l0.2-5.73H369.02z"/>
		<path class="st1" d="M383.3,585.72v2.15h-10.38v-13.84h10.1v2.15h-7.53v3.6h6.68v2.12h-6.68v3.82H383.3z"/>
		<path class="st1" d="M398.42,574.04v13.84h-2.53v-11.66h-7.18v11.66h-2.53v-13.84H398.42z"/>
		<path class="st1" d="M414.61,574.04v13.84h-2.57v-5.93h-7.16v5.93h-2.57v-13.84h2.57v5.71h7.16v-5.71H414.61z"/>
		<path class="st1" d="M421.07,587.15c-1.13-0.61-2.02-1.46-2.67-2.55c-0.65-1.09-0.97-2.3-0.97-3.65c0-1.34,0.32-2.56,0.97-3.65
			c0.65-1.09,1.54-1.94,2.67-2.55c1.13-0.61,2.4-0.92,3.82-0.92s2.68,0.31,3.82,0.92c1.13,0.61,2.02,1.46,2.67,2.54
			c0.65,1.08,0.97,2.3,0.97,3.66c0,1.36-0.32,2.58-0.97,3.66c-0.65,1.08-1.54,1.93-2.67,2.54c-1.13,0.61-2.41,0.92-3.82,0.92
			S422.21,587.77,421.07,587.15z M427.38,585.2c0.74-0.42,1.32-1,1.74-1.74c0.42-0.74,0.63-1.58,0.63-2.5c0-0.92-0.21-1.76-0.63-2.5
			c-0.42-0.74-1-1.32-1.74-1.74c-0.74-0.41-1.57-0.62-2.49-0.62c-0.92,0-1.75,0.21-2.49,0.62c-0.74,0.42-1.32,1-1.74,1.74
			c-0.42,0.74-0.63,1.58-0.63,2.5c0,0.92,0.21,1.76,0.63,2.5c0.42,0.74,1,1.32,1.74,1.74c0.74,0.41,1.57,0.62,2.49,0.62
			C425.81,585.82,426.64,585.61,427.38,585.2z"/>
		<path class="st1" d="M435.21,574.04h2.53v9.83l7.43-9.83h2.39v13.84h-2.53v-9.81l-7.43,9.81h-2.39V574.04z M438.68,572.38
			c-0.6-0.49-0.91-1.2-0.92-2.13h1.8c0.01,0.49,0.17,0.86,0.47,1.13c0.3,0.26,0.74,0.4,1.32,0.4c0.57,0,1.01-0.13,1.33-0.4
			c0.32-0.26,0.49-0.64,0.5-1.13h1.78c-0.01,0.92-0.33,1.63-0.94,2.12c-0.61,0.49-1.51,0.74-2.68,0.74
			C440.17,573.11,439.28,572.86,438.68,572.38z"/>
		<path class="st1" d="M470.62,585.7v5.12h-2.37v-2.95h-10.62v2.95h-2.39l0.02-5.12h0.59c0.87-0.04,1.48-0.68,1.83-1.93
			c0.35-1.25,0.56-3.03,0.64-5.35l0.16-4.39h10.14v11.66H470.62z M460.14,583.14c-0.22,1.19-0.58,2.05-1.07,2.56h7.02v-9.49h-5.42
			l-0.1,2.45C460.51,580.46,460.36,581.95,460.14,583.14z"/>
		<path class="st1" d="M483.41,585.72v2.15h-10.38v-13.84h10.1v2.15h-7.53v3.6h6.68v2.12h-6.68v3.82H483.41z"/>
		<path class="st1" d="M491.37,582.04h-2.57v5.83h-2.53v-13.84h2.53v5.79h2.65l3.97-5.79h2.73l-4.72,6.7l4.9,7.14h-2.91
			L491.37,582.04z"/>
		<path class="st1" d="M502.64,587.15c-1.13-0.61-2.02-1.46-2.67-2.55c-0.65-1.09-0.97-2.3-0.97-3.65c0-1.34,0.32-2.56,0.97-3.65
			c0.65-1.09,1.54-1.94,2.67-2.55c1.13-0.61,2.4-0.92,3.82-0.92s2.68,0.31,3.82,0.92c1.13,0.61,2.02,1.46,2.67,2.54
			c0.65,1.08,0.97,2.3,0.97,3.66c0,1.36-0.32,2.58-0.97,3.66c-0.65,1.08-1.54,1.93-2.67,2.54c-1.13,0.61-2.41,0.92-3.82,0.92
			S503.77,587.77,502.64,587.15z M508.95,585.2c0.74-0.42,1.32-1,1.74-1.74c0.42-0.74,0.63-1.58,0.63-2.5c0-0.92-0.21-1.76-0.63-2.5
			c-0.42-0.74-1-1.32-1.74-1.74c-0.74-0.41-1.57-0.62-2.49-0.62c-0.92,0-1.75,0.21-2.49,0.62c-0.74,0.42-1.32,1-1.74,1.74
			c-0.42,0.74-0.63,1.58-0.63,2.5c0,0.92,0.21,1.76,0.63,2.5c0.42,0.74,1,1.32,1.74,1.74c0.74,0.41,1.57,0.62,2.49,0.62
			C507.38,585.82,508.21,585.61,508.95,585.2z"/>
		<path class="st1" d="M525.58,574.63c0.89,0.4,1.57,0.96,2.05,1.7c0.47,0.74,0.71,1.61,0.71,2.63c0,1-0.24,1.87-0.71,2.62
			c-0.47,0.74-1.16,1.31-2.05,1.71c-0.89,0.4-1.93,0.59-3.13,0.59h-3.12v3.99h-2.57v-13.84h5.69
			C523.65,574.04,524.69,574.24,525.58,574.63z M524.88,581c0.58-0.47,0.87-1.15,0.87-2.04s-0.29-1.56-0.87-2.04
			s-1.43-0.71-2.55-0.71h-3v5.5h3C523.45,581.71,524.3,581.47,524.88,581z"/>
		<path class="st1" d="M536.45,574.04h2.53v9.83l7.43-9.83h2.39v13.84h-2.53v-9.81l-7.43,9.81h-2.39V574.04z"/>
		<path class="st1" d="M563.23,582.04h-2.57v5.83h-2.53v-13.84h2.53v5.79h2.65l3.97-5.79h2.73l-4.72,6.7l4.9,7.14h-2.91
			L563.23,582.04z"/>
		<path class="st1" d="M582.33,585.72v2.15h-10.38v-13.84h10.1v2.15h-7.53v3.6h6.68v2.12h-6.68v3.82H582.33z"/>
		<path class="st1" d="M594.02,574.63c0.89,0.4,1.57,0.96,2.05,1.7c0.47,0.74,0.71,1.61,0.71,2.63c0,1-0.24,1.87-0.71,2.62
			c-0.47,0.74-1.16,1.31-2.05,1.71c-0.89,0.4-1.93,0.59-3.13,0.59h-3.12v3.99h-2.57v-13.84h5.69
			C592.09,574.04,593.13,574.24,594.02,574.63z M593.32,581c0.58-0.47,0.87-1.15,0.87-2.04s-0.29-1.56-0.87-2.04
			s-1.43-0.71-2.55-0.71h-3v5.5h3C591.89,581.71,592.74,581.47,593.32,581z"/>
		<path class="st1" d="M607.69,584.67h-6.92l-1.36,3.2h-2.65l6.23-13.84h2.53l6.25,13.84h-2.69L607.69,584.67z M606.84,582.66
			l-2.61-6.05l-2.59,6.05H606.84z"/>
		<path class="st1" d="M626.59,587.88l-0.02-9.17l-4.55,7.59h-1.15l-4.55-7.47v9.05h-2.43v-13.84h2.12l5.48,9.15l5.42-9.15h2.1
			l0.04,13.84H626.59z"/>
		<path class="st1" d="M632.94,574.04h2.53v9.83l7.43-9.83h2.39v13.84h-2.53v-9.81l-7.43,9.81h-2.39V574.04z"/>
		<path class="st1" d="M654.27,582.04h-2.57v5.83h-2.53v-13.84h2.53v5.79h2.65l3.97-5.79h2.73l-4.72,6.7l4.9,7.14h-2.91
			L654.27,582.04z"/>
		<path class="st1" d="M671.92,584.67H665l-1.36,3.2h-2.65l6.23-13.84h2.53l6.25,13.84h-2.69L671.92,584.67z M671.07,582.66
			l-2.61-6.05l-2.59,6.05H671.07z"/>
	</g>
</g>
</svg>
