<svg width="44" height="45" viewBox="0 0 44 45" fill="none" xmlns="http://www.w3.org/2000/svg">
<circle cx="22" cy="22.7971" r="22" fill="#D2EF9A"/>
<g clip-path="url(#clip0_45_547)">
<path d="M31 20.7969C31 27.7969 22 33.7969 22 33.7969C22 33.7969 13 27.7969 13 20.7969C13 18.4099 13.9482 16.1207 15.636 14.4329C17.3239 12.7451 19.6131 11.7969 22 11.7969C24.3869 11.7969 26.6761 12.7451 28.364 14.4329C30.0518 16.1207 31 18.4099 31 20.7969Z" stroke="#1F1F1F" stroke-width="2" stroke-linecap="round" stroke-linejoin="round"/>
<path d="M22 23.7969C23.6569 23.7969 25 22.4537 25 20.7969C25 19.14 23.6569 17.7969 22 17.7969C20.3431 17.7969 19 19.14 19 20.7969C19 22.4537 20.3431 23.7969 22 23.7969Z" stroke="#1F1F1F" stroke-width="2" stroke-linecap="round" stroke-linejoin="round"/>
</g>
<defs>
<clipPath id="clip0_45_547">
<rect width="24" height="24" fill="white" transform="translate(10 10.7969)"/>
</clipPath>
</defs>
</svg>
