<svg width="61" height="60" viewBox="0 0 61 60" fill="none" xmlns="http://www.w3.org/2000/svg">
<path d="M55.1072 5H36.6755C36.2608 5 35.9248 5.33365 35.9248 5.74543C35.9248 6.15721 36.2608 6.49086 36.6755 6.49086H55.1072C56.2414 6.49086 57.1642 7.40714 57.1642 8.53334V27.7288C57.1642 28.855 56.2414 29.7713 55.1072 29.7713H52.1632C52.005 29.7713 51.8509 29.8209 51.7228 29.913L46.6036 33.5945V30.5167C46.6036 30.1049 46.2675 29.7713 45.8528 29.7713H29.5573C28.423 29.7713 27.5002 28.855 27.5002 27.7288V8.53334C27.5002 7.40714 28.4231 6.49086 29.5573 6.49086H33.4042C33.8189 6.49086 34.155 6.15721 34.155 5.74543C34.155 5.33365 33.8189 5 33.4042 5H29.5573C27.595 5 25.9987 6.58498 25.9987 8.53334V27.7288C25.9987 29.6771 27.5951 31.2621 29.5573 31.2621H45.102V35.0549C45.102 35.335 45.2602 35.5914 45.5114 35.7188C45.7777 35.8448 46.0383 35.8248 46.2932 35.6587L52.4065 31.2622H55.1072C57.0694 31.2622 58.6658 29.6772 58.6658 27.7289V8.53334C58.6658 6.58508 57.0693 5 55.1072 5Z" fill="#1F1F1F" stroke="#1F1F1F" stroke-width="0.4"/>
<path d="M50.308 45.6877C50.1369 44.4652 49.4174 43.4258 48.3317 42.8342L44.6839 40.8469C44.2862 40.6298 43.788 40.7768 43.5712 41.1749C43.3546 41.5727 43.5014 42.0708 43.8993 42.2875L47.5466 44.2748C48.1707 44.6147 48.5842 45.2116 48.6831 45.9137C48.6836 45.9182 48.6842 45.9227 48.6848 45.927C48.7805 46.6362 48.5391 47.328 48.0229 47.8243L47.4852 48.3405L34.0189 40.7632L35.6015 39.3711C36.2766 38.7771 37.2594 38.6674 38.0479 39.0981L40.3239 40.3385C40.7217 40.5552 41.2198 40.4086 41.4367 40.0107C41.6534 39.6129 41.5068 39.1148 41.1089 38.8979L38.8335 37.6578C37.4429 36.8986 35.7084 37.0918 34.518 38.1392L30.8299 41.3832C30.0745 42.0476 28.972 42.1093 28.1489 41.5328C22.5938 37.6411 18.5597 33.3597 15.816 28.4445C15.3533 27.6145 15.4826 26.5911 16.1374 25.8978L19.0567 22.8101C20.1453 21.6576 20.4005 19.9309 19.6917 18.5135L14.779 8.68806C14.2317 7.59206 13.2266 6.83708 12.0215 6.61658C10.8156 6.39566 9.60755 6.74641 8.70678 7.57817L6.84091 9.30196C4.7784 11.2072 3.41346 13.6711 2.89373 16.427C2.37301 19.1875 2.75198 21.9722 3.98951 24.481C3.99498 24.4926 4.00012 24.5026 4.00438 24.5109C4.78857 26.0968 5.63652 27.6476 6.52308 29.1176C6.67106 29.365 6.83063 29.6264 6.99709 29.8947C7.23607 30.2795 7.74169 30.3978 8.12667 30.159C8.51155 29.92 8.62989 29.4142 8.39102 29.0294C8.22926 28.7687 8.0744 28.515 7.92948 28.2729C7.06589 26.8409 6.24101 25.3324 5.47772 23.7893C5.47345 23.7803 5.46908 23.7716 5.46459 23.7628C3.30824 19.3997 4.27169 14.0461 7.79528 10.6599L15.1928 24.5091L14.9451 24.7711C13.7957 25.9878 13.5698 27.7852 14.3832 29.2438C17.2504 34.3804 21.4452 38.8397 27.2077 42.8767C27.8692 43.3399 28.6331 43.5684 29.3945 43.5684C30.2964 43.5684 31.1946 43.2473 31.9135 42.6151L32.7137 41.9112L46.2492 49.5273L46.2356 49.5404C42.7466 52.8924 37.5202 53.6553 33.2304 51.4385C23.9322 46.6324 16.3733 40.279 10.7638 32.5555C10.4975 32.1889 9.98455 32.1074 9.61805 32.3738C9.25144 32.6401 9.17018 33.153 9.43639 33.5196C15.1976 41.452 22.9496 47.9713 32.477 52.8962C34.3523 53.8653 36.3831 54.3373 38.4006 54.3373C41.6691 54.3373 44.9015 53.0974 47.3718 50.7239L49.1594 49.0075C50.051 48.1501 50.471 46.9585 50.314 45.7342C50.3125 45.7186 50.3104 45.7033 50.308 45.6877ZM9.03839 9.50528L9.81995 8.78333C10.3379 8.30505 11.0324 8.1037 11.7262 8.23035C12.4189 8.35711 12.9967 8.79109 13.3115 9.4215L18.2244 19.2474C18.6263 20.051 18.4815 21.0301 17.8644 21.6834L16.3812 23.2521L9.03839 9.50528Z" fill="#1F1F1F" stroke="#1F1F1F" stroke-width="0.4"/>
<path d="M52.5243 18.4904C52.5243 16.9104 51.2389 15.625 49.6589 15.625C48.0791 15.625 46.7936 16.9104 46.7936 18.4904C46.7936 20.0703 48.0791 21.3557 49.6589 21.3557C51.2389 21.3557 52.5243 20.0703 52.5243 18.4904ZM48.4341 18.4904C48.4341 17.815 48.9835 17.2656 49.6588 17.2656C50.3342 17.2656 50.8837 17.815 50.8837 18.4904C50.8837 19.1658 50.3342 19.7151 49.6588 19.7151C48.9835 19.7151 48.4341 19.1658 48.4341 18.4904Z" fill="#1F1F1F"/>
<path d="M44.9286 18.4904C44.9286 16.9104 43.6432 15.625 42.0633 15.625C40.4834 15.625 39.1979 16.9104 39.1979 18.4904C39.1979 20.0703 40.4834 21.3557 42.0633 21.3557C43.6432 21.3557 44.9286 20.0703 44.9286 18.4904ZM40.8384 18.4904C40.8384 17.815 41.3879 17.2656 42.0632 17.2656C42.7386 17.2656 43.288 17.815 43.288 18.4904C43.288 19.1658 42.7386 19.7151 42.0632 19.7151C41.3879 19.7151 40.8384 19.1658 40.8384 18.4904Z" fill="#1F1F1F"/>
<path d="M31.6004 18.4904C31.6004 20.0703 32.8857 21.3557 34.4658 21.3557C36.0458 21.3557 37.3312 20.0703 37.3312 18.4904C37.3312 16.9105 36.0457 15.625 34.4658 15.625C32.8858 15.625 31.6004 16.9105 31.6004 18.4904ZM34.4658 17.2656C35.1411 17.2656 35.6906 17.8151 35.6906 18.4904C35.6906 19.1658 35.1411 19.7152 34.4658 19.7152C33.7904 19.7152 33.241 19.1658 33.241 18.4904C33.241 17.8151 33.7904 17.2656 34.4658 17.2656Z" fill="#1F1F1F"/>
</svg>
