<svg width="20" height="20" viewBox="0 0 20 20" fill="none" xmlns="http://www.w3.org/2000/svg">
<path d="M10.5397 2C7.2506 2 4 4.19271 4 7.74145C4 9.99827 5.26946 11.2806 6.03884 11.2806C6.3562 11.2806 6.53893 10.3958 6.53893 10.1457C6.53893 9.8476 5.77917 9.21287 5.77917 7.97226C5.77917 5.39486 7.74107 3.5676 10.28 3.5676C12.4631 3.5676 14.0788 4.80821 14.0788 7.08748C14.0788 8.78972 13.396 11.9826 11.184 11.9826C10.3858 11.9826 9.70297 11.4056 9.70297 10.5785C9.70297 9.36675 10.5493 8.19345 10.5493 6.94322C10.5493 4.82103 7.53911 5.20572 7.53911 7.7703C7.53911 8.30886 7.60643 8.90512 7.84686 9.3956C7.40447 11.2998 6.50046 14.1369 6.50046 16.0988C6.50046 16.7046 6.58702 17.3009 6.64472 17.9068C6.75371 18.0286 6.69922 18.0158 6.86591 17.9549C8.4816 15.7429 8.42389 15.3102 9.1548 12.4154C9.5491 13.1655 10.5685 13.5694 11.3764 13.5694C14.7808 13.5694 16.31 10.2515 16.31 7.26059C16.31 4.07731 13.5595 2 10.5397 2Z" fill="#1F1F1F"/>
</svg>
