<svg width="27" height="31" viewBox="0 0 27 31" fill="none" xmlns="http://www.w3.org/2000/svg">
<path d="M2.90583 29.9326L25.9978 16.6003C26.2399 16.4603 26.4409 16.2591 26.5806 16.0168C26.7204 15.7745 26.7939 15.4998 26.7939 15.2201C26.7939 14.9404 26.7204 14.6657 26.5806 14.4234C26.4409 14.1812 26.2399 13.9799 25.9978 13.8399L2.90583 0.506118C2.66329 0.36727 2.38859 0.294451 2.10912 0.294924C1.82965 0.295397 1.55519 0.369147 1.31312 0.508815C1.07106 0.648482 0.869846 0.849184 0.729569 1.0909C0.589291 1.33261 0.514849 1.60688 0.513672 1.88635V28.5517C0.514723 28.8312 0.589074 29.1056 0.7293 29.3474C0.869526 29.5892 1.07072 29.79 1.31281 29.9298C1.5549 30.0695 1.82941 30.1433 2.10894 30.1438C2.38847 30.1443 2.66324 30.0715 2.90583 29.9326Z" fill="#1F1F1F"/>
</svg>
