<svg width="40" height="40" viewBox="0 0 40 40" fill="none" xmlns="http://www.w3.org/2000/svg">
<g id="Icon" clip-path="url(#clip0_79_245)">
<path id="Vector" d="M10.8327 31.6667H7.49935C7.03935 31.6667 6.66602 31.2933 6.66602 30.8333C6.66602 30.3733 7.03935 30 7.49935 30H10.8327C11.2927 30 11.666 30.3733 11.666 30.8333C11.666 31.2933 11.2927 31.6667 10.8327 31.6667Z" fill="#1F1F1F"/>
<path id="Vector_2" d="M37.9156 31.667H35.8323C35.3723 31.667 34.999 31.2937 34.999 30.8337C34.999 30.3737 35.3723 30.0003 35.8323 30.0003H37.224L38.3473 24.0137C38.3323 20.9503 35.7156 18.3337 32.499 18.3337H27.0273L24.3756 30.0003H29.1656C29.6256 30.0003 29.999 30.3737 29.999 30.8337C29.999 31.2937 29.6256 31.667 29.1656 31.667H23.3323C23.079 31.667 22.839 31.552 22.6806 31.3537C22.5223 31.157 22.4623 30.897 22.519 30.6503L25.549 17.317C25.6356 16.9353 25.9723 16.667 26.3623 16.667H32.499C36.634 16.667 39.999 20.032 39.999 24.167L38.734 30.987C38.6606 31.382 38.3173 31.667 37.9156 31.667Z" fill="#1F1F1F"/>
<path id="Vector_3" d="M32.5006 35.0003C30.204 35.0003 28.334 33.132 28.334 30.8337C28.334 28.5353 30.204 26.667 32.5006 26.667C34.7973 26.667 36.6673 28.5353 36.6673 30.8337C36.6673 33.132 34.7973 35.0003 32.5006 35.0003ZM32.5006 28.3337C31.1223 28.3337 30.0006 29.4553 30.0006 30.8337C30.0006 32.212 31.1223 33.3336 32.5006 33.3336C33.879 33.3336 35.0006 32.212 35.0006 30.8337C35.0006 29.4553 33.879 28.3337 32.5006 28.3337Z" fill="#1F1F1F"/>
<path id="Vector_4" d="M14.1667 35.0003C11.87 35.0003 10 33.132 10 30.8337C10 28.5353 11.87 26.667 14.1667 26.667C16.4633 26.667 18.3333 28.5353 18.3333 30.8337C18.3333 33.132 16.4633 35.0003 14.1667 35.0003ZM14.1667 28.3337C12.7883 28.3337 11.6667 29.4553 11.6667 30.8337C11.6667 32.212 12.7883 33.3336 14.1667 33.3336C15.545 33.3336 16.6667 32.212 16.6667 30.8337C16.6667 29.4553 15.545 28.3337 14.1667 28.3337Z" fill="#1F1F1F"/>
<path id="Vector_5" d="M10.834 16.6667H4.16732C3.70732 16.6667 3.33398 16.2933 3.33398 15.8333C3.33398 15.3733 3.70732 15 4.16732 15H10.834C11.294 15 11.6673 15.3733 11.6673 15.8333C11.6673 16.2933 11.294 16.6667 10.834 16.6667Z" fill="#1F1F1F"/>
<path id="Vector_6" d="M10.8327 21.6667H2.49935C2.03935 21.6667 1.66602 21.2933 1.66602 20.8333C1.66602 20.3733 2.03935 20 2.49935 20H10.8327C11.2927 20 11.666 20.3733 11.666 20.8333C11.666 21.2933 11.2927 21.6667 10.8327 21.6667Z" fill="#1F1F1F"/>
<path id="Vector_7" d="M10.8333 26.6667H0.833333C0.373333 26.6667 0 26.2933 0 25.8333C0 25.3733 0.373333 25 0.833333 25H10.8333C11.2933 25 11.6667 25.3733 11.6667 25.8333C11.6667 26.2933 11.2933 26.6667 10.8333 26.6667Z" fill="#1F1F1F"/>
<path id="Vector_8" d="M23.3327 31.667H17.4993C17.0393 31.667 16.666 31.2937 16.666 30.8337C16.666 30.3737 17.0393 30.0003 17.4993 30.0003H22.6677L26.4543 13.3337H7.49935C7.03935 13.3337 6.66602 12.9603 6.66602 12.5003C6.66602 12.0403 7.03935 11.667 7.49935 11.667H27.4993C27.7527 11.667 27.9927 11.782 28.151 11.9803C28.3094 12.177 28.3694 12.437 28.3127 12.6837L24.146 31.017C24.0593 31.3987 23.721 31.667 23.3327 31.667Z" fill="#1F1F1F"/>
</g>
<defs>
<clipPath id="clip0_79_245">
<rect width="40" height="40" fill="white"/>
</clipPath>
</defs>
</svg>
