<svg width="40" height="40" viewBox="0 0 40 40" fill="none" xmlns="http://www.w3.org/2000/svg">
<g id="Icon" clip-path="url(#clip0_79_266)">
<path id="XMLID_38_" d="M7.06396 24.4932C7.03161 24.4932 7.09693 24.4973 7.06396 24.4932V24.4932Z" fill="#1F1F1F"/>
<path id="XMLID_39_" d="M38.4812 35.3163C35.7717 35.3163 33.1 35.0154 30.5077 34.4376C30.8557 33.4693 31.0426 32.4364 31.0531 31.3743C31.0771 28.9488 30.1761 26.6851 28.5163 25.0005C27.415 23.8827 26.0391 23.0689 24.5375 22.6473C24.5244 22.6437 24.5115 22.6404 24.4984 22.6374C20.7072 21.5767 17.2802 19.7194 14.3126 17.1167C13.9881 16.8322 13.4945 16.8645 13.21 17.1889C12.9255 17.5133 12.9578 18.007 13.2822 18.2915C14.3637 19.2399 15.5027 20.0949 16.6951 20.8542C17.4014 22.2192 17.7499 23.748 17.7034 25.2928C17.6905 25.7241 18.0296 26.0842 18.4609 26.0972C18.4689 26.0974 18.4769 26.0975 18.4848 26.0975C18.9055 26.0975 19.2526 25.763 19.2654 25.3396C19.2985 24.2392 19.1597 23.1455 18.8606 22.0973C20.1489 22.7608 21.491 23.3221 22.8827 23.7787C23.6859 25.0813 24.148 26.565 24.2213 28.0876C24.2414 28.5058 24.5868 28.8313 25.001 28.8313C25.0137 28.8313 25.0265 28.831 25.0393 28.8304C25.4702 28.8096 25.8028 28.4434 25.782 28.0124C25.7231 26.7865 25.4483 25.5826 24.9783 24.4541C25.8817 24.8341 26.7084 25.392 27.4031 26.0971C29.506 28.2314 30.0283 31.3817 28.9851 34.0641C20.7043 31.8432 13.3428 26.7595 8.32592 19.5561C8.07926 19.202 7.59242 19.1149 7.23826 19.3614C6.88417 19.608 6.79705 20.095 7.04363 20.4491C10.5017 25.4144 15.1455 29.5426 20.4729 32.3874C22.94 33.7047 25.553 34.7427 28.2508 35.4881C27.9854 35.8912 27.6788 36.2748 27.3294 36.6315C25.6952 38.1921 23.2427 38.8143 21.0773 38.2166C18.5322 37.5142 16.1114 36.4143 13.9054 34.9711C14.6266 34.8991 15.3414 34.7533 16.0452 34.5303C16.4566 34.4 16.6844 33.9609 16.5541 33.5495C16.4238 33.1382 15.985 32.9105 15.5734 33.0406C14.3261 33.4357 13.0389 33.5527 11.7442 33.3902C11.0696 32.8408 10.4211 32.2565 9.80299 31.6384C7.51882 29.3543 5.74166 26.704 4.49281 23.8528C5.29803 24.167 6.18958 24.384 7.06316 24.4934C7.45132 24.4934 7.83697 24.2074 7.88643 23.8122C7.94011 23.384 7.63649 22.9934 7.20825 22.9398C5.94167 22.7812 4.75127 22.3663 3.66485 21.7064C1.67454 15.7704 1.86385 9.17963 4.42702 3.28557C5.17763 6.73225 6.58453 10.0321 8.55641 12.9427C8.79846 13.2998 9.28412 13.3933 9.64149 13.1513C9.99871 12.9092 10.0922 12.4235 9.8501 12.0662C7.5607 8.68701 6.07848 4.75108 5.56391 0.684278C5.52148 0.348705 5.26787 0.0785273 4.93558 0.0150067C4.60344 -0.0487483 4.26795 0.108842 4.10457 0.405115C2.69743 2.95649 1.71587 5.70858 1.187 8.58474C0.665868 11.4189 0.596331 14.305 0.980267 17.1627C1.77869 23.1052 4.44749 28.493 8.69806 32.7437C12.0211 36.0667 16.158 38.48 20.6616 39.7231C21.3397 39.9102 22.0402 40.001 22.7414 40.001C24.8132 40.001 26.8898 39.2083 28.4016 37.7682C28.4104 37.7601 28.4194 37.753 28.428 37.7445C28.4356 37.7371 28.4419 37.7292 28.4491 37.7216C28.9919 37.1668 29.4558 36.5515 29.8354 35.8906C32.6613 36.5436 35.5657 36.8791 38.4812 36.8791C38.9128 36.8791 39.2626 36.5293 39.2626 36.0977C39.2626 35.6662 38.9127 35.3163 38.4812 35.3163Z" fill="#1F1F1F"/>
<path id="XMLID_397_" d="M11.3614 16.0607C11.5669 16.0607 11.7685 15.9771 11.9138 15.8317C12.0591 15.6864 12.1427 15.4848 12.1427 15.2794C12.1427 15.0739 12.0591 14.8723 11.9138 14.727C11.7685 14.5816 11.5669 14.498 11.3614 14.498C11.1559 14.498 10.9543 14.5816 10.809 14.727C10.6637 14.8723 10.5801 15.0739 10.5801 15.2794C10.5801 15.4856 10.6637 15.6864 10.809 15.8317C10.9543 15.9771 11.1559 16.0607 11.3614 16.0607Z" fill="#1F1F1F"/>
</g>
<defs>
<clipPath id="clip0_79_266">
<rect width="40" height="40" fill="white"/>
</clipPath>
</defs>
</svg>
