<svg width="20" height="20" viewBox="0 0 20 20" fill="none" xmlns="http://www.w3.org/2000/svg">
<path d="M17.6657 5.76024C17.4817 5.06737 16.9395 4.52169 16.2511 4.3365C15.0033 4 10 4 10 4C10 4 4.99669 4 3.7489 4.3365C3.06052 4.52172 2.51835 5.06737 2.33434 5.76024C2 7.01611 2 9.63636 2 9.63636C2 9.63636 2 12.2566 2.33434 13.5125C2.51835 14.2053 3.06052 14.7283 3.7489 14.9135C4.99669 15.25 10 15.25 10 15.25C10 15.25 15.0033 15.25 16.2511 14.9135C16.9395 14.7283 17.4817 14.2053 17.6657 13.5125C18 12.2566 18 9.63636 18 9.63636C18 9.63636 18 7.01611 17.6657 5.76024ZM8.36363 12.0154V7.25737L12.5454 9.63642L8.36363 12.0154Z" fill="#1F1F1F"/>
</svg>
